<?xml version="1.0" encoding="UTF-8" standalone="no"?>
<svg
   xmlns:dc="http://purl.org/dc/elements/1.1/"
   xmlns:cc="http://creativecommons.org/ns#"
   xmlns:rdf="http://www.w3.org/1999/02/22-rdf-syntax-ns#"
   xmlns:svg="http://www.w3.org/2000/svg"
   xmlns="http://www.w3.org/2000/svg"
   viewBox="0 0 628.40002 591.91998"
   height="591.91998"
   width="628.40002"
   xml:space="preserve"
   id="svg2"
   version="1.1"><metadata
     id="metadata8"><rdf:RDF><cc:Work
         rdf:about=""><dc:format>image/svg+xml</dc:format><dc:type
           rdf:resource="http://purl.org/dc/dcmitype/StillImage" /></cc:Work></rdf:RDF></metadata><defs
     id="defs6" /><g
     transform="matrix(1.3333333,0,0,-1.3333333,0,591.92)"
     id="g10"><g
       transform="scale(0.1)"
       id="g12"><path
         id="path14"
         style="fill:#f3f2f1;fill-opacity:1;fill-rule:nonzero;stroke:none"
         d="M 690.191,2283.31 C -230.066,1760.97 -230.063,914.102 690.199,391.762 1610.46,-130.578 3102.51,-130.59 4022.77,391.75 c 920.25,522.34 920.25,1369.22 -0.01,1891.56 -920.26,522.34 -2412.31,522.34 -3332.569,0" /><path
         id="path16"
         style="fill:#dadbd8;fill-opacity:1;fill-rule:nonzero;stroke:none"
         d="m 4299.06,1370.23 c 240.02,-138.58 240.01,-363.25 -0.01,-501.828 -240.01,-138.57 -629.16,-138.57 -869.18,0 -240.02,138.578 -240.02,363.248 0,501.828 240.02,138.57 629.17,138.57 869.19,0" /><path
         id="path18"
         style="fill:#dadbd8;fill-opacity:1;fill-rule:nonzero;stroke:none"
         d="M 160.238,1530.7 2504.83,177.059 3596.82,807.52 1252.23,2161.17 160.238,1530.7" /><path
         id="path20"
         style="fill:#dadbd8;fill-opacity:1;fill-rule:nonzero;stroke:none"
         d="m 2889.02,1777.84 -35.75,20.64 c -24.26,14.01 -24.25,36.71 0,50.71 l 79.66,45.99 -288.33,166.47 -79.66,-46 c -24.25,-14 -63.58,-14 -87.82,0 l -35.76,20.64 c -24.25,14.01 -24.25,36.71 0,50.71 l 241.7,139.54 c 24.25,14.01 63.57,14.01 87.81,0.01 l 35.77,-20.65 c 24.24,-14 24.24,-36.7 0,-50.7 l -87.97,-50.79 288.33,-166.47 87.96,50.8 c 24.26,13.99 63.56,13.99 87.82,0 l 35.76,-20.65 c 24.25,-14 24.25,-36.7 0,-50.7 l -241.71,-139.55 c -24.25,-14 -63.56,-14 -87.81,0" /><path
         id="path22"
         style="fill:#dadbd8;fill-opacity:1;fill-rule:nonzero;stroke:none"
         d="m 1957.21,2182.62 c 63.96,-36.93 63.96,-96.8 0,-133.73 -63.96,-36.93 -167.66,-36.93 -231.63,0 -63.96,36.93 -63.96,96.8 0.01,133.73 63.96,36.93 167.66,36.93 231.62,0" /><path
         id="path24"
         style="fill:#26b6a6;fill-opacity:1;fill-rule:nonzero;stroke:none"
         d="M 160.238,1589.61 2504.83,235.961 3596.82,866.43 1252.23,2220.07 160.238,1589.61" /><path
         id="path26"
         style="fill:#a1dfd6;fill-opacity:1;fill-rule:nonzero;stroke:none"
         d="M 2504.83,235.961 160.238,1589.61 l 1091.992,630.46 25.92,-14.96 c -4.16,-23.08 -7.67,-41.94 -9.56,-50.97 -1.54,-7.37 -3.44,-15.26 -5.58,-23.52 -48.36,-5.98 -95.95,-42.88 -144.23,-61.81 -29.53,-11.56 -59.07,-15.93 -88.59,-15.93 -19.66,0 -39.303,1.94 -58.948,4.96 L 762.617,1937.39 v 0 c 8.633,-30.65 22.543,-60.43 32.094,-91.01 5.871,-18.79 9.617,-39.41 9.602,-59.45 -0.024,-29.53 -8.219,-57.81 -29.84,-77.16 -20.887,-18.7 -49.828,-24.82 -77.328,-30.26 -38.36,-7.58 -76.715,-15.16 -115.067,-22.74 -32.805,-6.48 -70.578,-16.85 -83.359,-47.74 -2.719,-6.57 -3.961,-13.21 -3.973,-19.82 -0.058,-31.4 27.633,-61.97 56.426,-79.63 64.949,-39.85 142.363,-52.71 213.945,-78.83 167.813,-61.23 299.163,-193.33 455.473,-279.82 108.23,-59.89 228.69,-97.59 351.77,-110.09 127.47,-12.95 257.48,0.78 383.25,-23.73 98.79,-19.251 199.42,-46.251 296.3,-75.419 40.48,-12.191 80.35,-26.961 117.87,-46.55 33.85,-17.672 64.85,-29.571 89.54,-60.77 17.84,-22.551 33.73,-47.832 58.08,-63.141 24.28,-15.269 53.97,-18.679 80.74,-28.992 8.32,-3.199 16.29,-7.039 24.01,-11.328 51.33,-28.57 89.36,-76.918 146.86,-93.191 24.36,-6.879 49.7,-10.34 75.03,-10.34 35.1,0 70.19,6.641 102.67,20.012 24.43,10.058 48.57,24.968 60.38,48.589 4,7.981 6.02,17.102 6.03,26.149 0.01,13.293 -4.31,26.422 -13.04,35.512 0.08,4.078 -0.38,8.007 -1.1,11.757 1.03,3.223 1.56,6.442 1.57,9.633 0,2.891 -0.43,5.758 -1.33,8.59 27.23,-10.949 56.58,-16.359 85.95,-16.359 43.54,0 87.11,11.879 123.93,35.168 18.63,11.781 36.71,28.191 40.17,49.968 0.4,2.473 0.59,4.954 0.59,7.422 -0.01,11.27 -3.96,22.36 -10.26,32.051 4.48,10.168 4.25,19.84 2.58,28.508 1.03,3.223 1.57,6.441 1.57,9.633 0.01,9.136 -4.34,18.047 -13.93,26.117 -29.3,24.66 -59.34,32.281 -142.11,78.211 -25.91,14.38 -70.83,51.87 -105.02,89.63 -38.11,42.09 -67.5,82.8 -79.27,82.8 -0.8,0 -1.51,-0.18 -2.14,-0.57 v 0 0 l 4.95,-12.67 c -10.5,26.18 -20.86,55.12 -31.05,85.54 L 3596.82,866.43 2504.83,235.961 m 264.49,849.879 c -49.07,22.18 -98.36,45.19 -144.41,72.7 -31.85,104.67 -63.18,229.48 -90.98,321.54 l 54.67,-31.56 c 10.35,-35.08 26.46,-69.37 55.61,-113.4 57.8,-87.32 71.76,-103.18 114.36,-174.99 -0.85,-0.91 -1.22,-2.7 -1.22,-5.16 -0.02,-12.93 9.91,-44.45 11.61,-64.39 0.13,-1.57 0.25,-3.15 0.36,-4.74 m -1040.17,491.6 -126.71,55.57 74.66,79.87 -129.43,130.06 c 0,0 0.01,0.36 0.01,1.03 v 0 c 0,9.2 -1.28,77.6 -38.63,111.95 -0.05,0.05 -0.11,0.1 -0.16,0.15 -10.02,9.16 -23.22,16.3 -38.19,21.84 3.96,32.36 8.31,69.35 12.65,108.73 l 669.32,-386.43 c -181.22,-41.94 -339.63,-86.81 -339.63,-86.81 l -83.89,-35.96" /><path
         id="path28"
         style="fill:#86d6c7;fill-opacity:1;fill-rule:nonzero;stroke:none"
         d="m 2844.04,627.379 c -25.33,0 -50.67,3.461 -75.03,10.34 -57.5,16.273 -95.53,64.621 -146.86,93.191 -7.72,4.289 -15.69,8.129 -24.01,11.328 -26.77,10.313 -56.46,13.723 -80.74,28.992 -24.35,15.309 -40.24,40.59 -58.08,63.141 -24.69,31.199 -55.69,43.098 -89.54,60.77 -37.52,19.589 -77.39,34.359 -117.87,46.55 -96.88,29.168 -197.51,56.168 -296.3,75.419 -125.77,24.51 -255.78,10.78 -383.25,23.73 -123.08,12.5 -243.54,50.2 -351.77,110.09 -156.31,86.49 -287.66,218.59 -455.473,279.82 -71.582,26.12 -148.996,38.98 -213.945,78.83 -28.793,17.66 -56.484,48.23 -56.426,79.63 0.012,6.61 1.254,13.25 3.973,19.82 12.781,30.89 50.554,41.26 83.359,47.74 38.352,7.58 76.707,15.16 115.067,22.74 27.5,5.44 56.441,11.56 77.328,30.26 21.621,19.35 29.816,47.63 29.84,77.16 0.015,20.04 -3.731,40.66 -9.602,59.45 -9.551,30.58 -23.461,60.36 -32.094,91.01 l 208.625,120.45 c 19.645,-3.02 39.288,-4.96 58.948,-4.96 29.52,0 59.06,4.37 88.59,15.93 48.28,18.93 95.87,55.83 144.23,61.81 -8.17,-31.47 -19.94,-68.37 -29.69,-102.18 -3.33,-11.52 -7.36,-24.96 -10.33,-36.92 -49.92,-12.61 -84.48,-27.85 -85.69,-28.38 -46.97,-18.23 -118.68,-43.85 -169.249,-61.68 -19.754,-3.67 -39.547,-10.61 -59.379,-20.77 v 0 c 0,0 -108.91,-193.53 -22.559,-244.04 60.164,-35.19 80.496,-51.45 113.371,-73.13 -0.156,-0.53 -0.308,-1.06 -0.464,-1.59 v 0 0 c 13.93,-8.14 30.07,-17.51 52.49,-30.45 0.78,-0.46 1.56,-0.91 2.35,-1.37 11.04,-6.37 23.31,-12.69 36.6,-18.98 28.42,-13.85 64.68,-29.98 89.09,-37.31 14.65,-5.67 30.16,-11.58 42.21,-16.06 0.01,0.06 0.02,0.13 0.03,0.2 53.35,-19.7 109.52,-39.56 160.64,-60.07 46.26,-29.98 73.29,-71.33 127.47,-110.32 65.09,-46.85 98.88,-78.09 202.63,-80.24 2.87,-0.06 5.74,-0.09 8.59,-0.09 164.56,0 300.42,97.43 406.21,135.46 29.81,10.71 59.18,23.97 85.11,36.9 33.09,10.2 63.42,20.88 91.95,31.3 5.87,-51.28 30.28,-136.26 97.56,-229.28 61.59,-85.18 71.86,-103.31 114.83,-175.81 v 0 c -1.89,-0.14 -2.64,-2.32 -2.63,-5.919 0.02,-12.993 9.91,-44.399 11.62,-64.301 2.2,-25.82 0.15,-55.051 7.64,-68.61 0.54,-11.878 6.9,-30.671 11.12,-36.468 5.91,-8.141 26.6,-21.711 50.12,-27.582 28.97,-7.25 54.37,-22.731 84.21,-48.75 18.66,-16.27 62.38,-47.688 111.63,-62.871 22.35,-6.868 46.21,-10.957 70.56,-10.957 29.34,0 59.38,5.929 88.33,20.07 40.29,19.68 50.36,39.777 50.7,57.219 8.73,-9.09 13.05,-22.219 13.04,-35.512 -0.01,-9.047 -2.03,-18.168 -6.03,-26.149 -11.81,-23.621 -35.95,-38.531 -60.38,-48.589 -32.48,-13.371 -67.57,-20.012 -102.67,-20.012 m 241.13,143.883 c -29.37,0 -58.72,5.41 -85.95,16.359 -1.94,6.109 -6.05,12.008 -12.6,17.527 -29.29,24.661 -59.33,32.274 -142.11,78.204 -25.91,14.378 -70.83,51.867 -105.02,89.64 -38.15,42.128 -66.47,83.528 -78.09,83.528 -0.77,0 -1.47,-0.18 -2.1,-0.56 -11.44,29.96 -22.95,64.96 -34.39,102.58 46.05,-27.51 95.34,-50.52 144.41,-72.7 1.64,-24.58 0.25,-51.14 7.29,-63.88 0.55,-11.88 6.9,-30.659 11.12,-36.468 5.91,-8.14 26.6,-21.703 50.13,-27.582 28.95,-7.238 54.35,-22.73 84.2,-48.738 18.67,-16.274 62.37,-47.703 111.64,-62.871 22.33,-6.879 46.2,-10.969 70.54,-10.969 29.34,0 59.39,5.938 88.33,20.078 27.9,13.621 41.31,27.449 47.03,40.461 6.3,-9.691 10.25,-20.781 10.26,-32.051 0,-2.468 -0.19,-4.949 -0.59,-7.422 -3.46,-21.777 -21.54,-38.187 -40.17,-49.968 -36.82,-23.289 -80.39,-35.168 -123.93,-35.168 m -420.33,270.598 c -1.82,4.49 -3.63,9.12 -5.45,13.88 l 5.45,-13.88" /><path
         id="path30"
         style="fill:#26b6a6;fill-opacity:1;fill-rule:nonzero;stroke:none"
         d="m 160.238,1589.61 v -21.27 L 2504.83,214.691 v 21.27 L 160.238,1589.61" /><path
         id="path32"
         style="fill:#70cec3;fill-opacity:1;fill-rule:nonzero;stroke:none"
         d="M 2504.83,214.691 160.238,1568.34 v 21.27 L 2504.83,235.961 v -21.27" /><path
         id="path34"
         style="fill:#26b6a6;fill-opacity:1;fill-rule:nonzero;stroke:none"
         d="M 2504.83,235.961 3596.82,866.43 V 845.148 L 2504.83,214.691 v 21.27" /><path
         id="path36"
         style="fill:#5cc8bc;fill-opacity:1;fill-rule:nonzero;stroke:none"
         d="m 2504.83,214.691 v 21.27 L 3596.82,866.43 V 845.148 L 2504.83,214.691" /><path
         id="path38"
         style="fill:#26b6a6;fill-opacity:1;fill-rule:nonzero;stroke:none"
         d="m 1956.69,2317.85 c -3.69,16.48 -12.16,34.08 -19.17,49.47 -0.82,1.8 -1.69,3.59 -2.61,5.4 -15.3,30.23 -15.21,66.01 1.37,95.56 0.58,1.02 1.14,2.03 1.69,3.05 10.34,18.77 14.79,34.88 14.81,56.25 0.07,16.3 -10.61,40.68 -32.11,53.19 -4.66,2.76 -9.66,5.17 -14.9,7.24 -9.68,3.91 -16.19,13.11 -16.15,23.6 l 0.11,29.13 -93.24,0.36 -0.12,-29.13 c -0.04,-10.48 -6.63,-19.64 -16.33,-23.47 -5.25,-2.03 -10.28,-4.41 -14.96,-7.12 -21.59,-12.35 -32.46,-36.64 -32.52,-52.94 -0.15,-21.37 4.18,-37.52 14.37,-56.37 0.51,-0.95 1.03,-1.9 1.56,-2.85 16.44,-29.73 16.31,-65.57 0.78,-95.78 -0.92,-1.8 -1.81,-3.59 -2.64,-5.38 -7.12,-15.33 -15.79,-32.87 -19.55,-49.32 -3.62,-15.96 -4.49,-33.1 -4.55,-50.18 L 1722,2132.9 c -0.07,-17.64 11.48,-35.25 34.65,-48.73 18.94,-11.02 42.75,-17.62 67.38,-19.68 11.18,-0.97 22.55,-1.01 33.67,-0.13 24.59,1.99 48.2,8.35 67.11,19.15 23.28,13.3 34.96,30.83 35.02,48.4 l 0.39,98.13 c 0.04,12.22 0.52,25 0.57,37.78 0.07,17.02 -0.6,34.1 -4.1,50.03" /><path
         id="path40"
         style="fill:#06ab91;fill-opacity:1;fill-rule:nonzero;stroke:none"
         d="m 1841.69,2063.73 c -5.89,0 -11.8,0.25 -17.66,0.76 -24.63,2.06 -48.44,8.66 -67.38,19.68 -23.08,13.42 -34.63,30.96 -34.65,48.52 0,0.07 0,0.14 0,0.21 l 0.53,135.66 c 0.06,17.08 0.93,34.22 4.55,50.18 3.76,16.45 12.43,33.99 19.55,49.32 0.83,1.79 1.72,3.58 2.64,5.38 7.68,14.93 11.59,31.23 11.6,47.49 0.01,16.65 -4.06,33.25 -12.38,48.29 -0.53,0.95 -1.05,1.9 -1.56,2.85 -10.03,18.55 -14.38,34.49 -14.38,55.37 0,0.33 0,0.66 0.01,1 0.06,16.3 10.93,40.59 32.52,52.94 4.68,2.71 9.71,5.09 14.96,7.12 0.33,0.13 0.65,0.26 0.97,0.4 1.45,-7.99 7.51,-15.8 18.13,-22.01 12.43,-7.24 28.8,-10.86 45.14,-10.86 16.07,0 32.12,3.5 44.43,10.52 6.16,3.54 10.85,7.64 13.94,12.05 2.05,2.9 3.43,5.93 4.12,9.01 4.87,-1.98 9.54,-4.26 13.9,-6.84 21.41,-12.46 32.09,-36.7 32.11,-52.99 0,-0.07 0,-0.13 0,-0.2 -0.02,-19.79 -3.84,-35.07 -12.61,-52.12 7.45,14.48 11.3,27.7 12.32,43.48 -2.15,-6.76 -5.14,-13.29 -8.85,-19.28 -10.68,-17.3 -26.26,-30.97 -42.02,-43.83 -15.97,-13.05 -33.72,-27.88 -35.71,-48.4 -1.92,-19.86 12.09,-37.91 28.03,-49.92 15.94,-12.01 34.59,-20.47 48.92,-34.36 6.24,-6.06 11.45,-13.02 16.24,-20.29 -0.59,4.99 -1.32,9.93 -2.36,14.75 3.29,-15.12 4.05,-31.26 4.06,-47.4 0,-0.8 0,-1.59 -0.01,-2.39 -0.05,-12.78 -0.53,-25.56 -0.57,-37.78 l -0.39,-98.13 c -0.06,-17.57 -11.74,-35.1 -35.02,-48.4 -18.91,-10.8 -42.52,-17.16 -67.11,-19.15 -5.3,-0.42 -10.65,-0.63 -16.01,-0.63 m 115,254.12 v 0 c -3.69,16.48 -12.16,34.08 -19.17,49.47 -0.82,1.8 -1.69,3.59 -2.61,5.4 -7.47,14.76 -11.27,30.85 -11.28,46.88 0.01,-16.03 3.81,-32.12 11.28,-46.88 0.92,-1.81 1.79,-3.6 2.61,-5.4 7.01,-15.39 15.48,-32.99 19.17,-49.47 v 0" /><path
         id="path42"
         style="fill:#d5d7d4;fill-opacity:1;fill-rule:nonzero;stroke:none"
         d="m 1956.74,2317.61 c -0.02,0.08 -0.04,0.16 -0.05,0.24 0.01,-0.08 0.03,-0.16 0.05,-0.24 m -33.11,101.99 v 0 c 0,16.81 4.17,33.56 12.65,48.68 0.58,1.02 1.14,2.03 1.69,3.05 0.77,1.39 1.5,2.76 2.2,4.13 -0.7,-1.37 -1.43,-2.74 -2.2,-4.13 -0.55,-1.02 -1.11,-2.03 -1.69,-3.05 -8.48,-15.12 -12.65,-31.87 -12.65,-48.68" /><path
         id="path44"
         style="fill:#069983;fill-opacity:1;fill-rule:nonzero;stroke:none"
         d="m 1959.1,2302.86 c -4.79,7.27 -10,14.23 -16.24,20.29 -14.33,13.89 -32.98,22.35 -48.92,34.36 -15.94,12.01 -29.95,30.06 -28.03,49.92 1.99,20.52 19.74,35.35 35.71,48.4 15.76,12.86 31.34,26.53 42.02,43.83 3.71,5.99 6.7,12.52 8.85,19.28 -1.02,-15.78 -4.87,-29 -12.32,-43.48 -0.7,-1.37 -1.43,-2.74 -2.2,-4.13 -0.55,-1.02 -1.11,-2.03 -1.69,-3.05 -8.48,-15.12 -12.65,-31.87 -12.65,-48.68 v 0 c 0.01,-16.03 3.81,-32.12 11.28,-46.88 0.92,-1.81 1.79,-3.6 2.61,-5.4 7.01,-15.39 15.48,-32.99 19.17,-49.47 v 0 c 0.01,-0.08 0.03,-0.16 0.05,-0.24 1.04,-4.82 1.77,-9.76 2.36,-14.75" /><path
         id="path46"
         style="fill:#26b6a6;fill-opacity:1;fill-rule:nonzero;stroke:none"
         d="m 1780.73,2608.59 -0.06,-15.68 c -0.1,-9.34 6.07,-18.77 18.47,-26.02 24.65,-14.35 64.73,-14.51 89.57,-0.34 6.16,3.54 10.85,7.64 13.94,12.05 3.09,4.36 4.64,9.02 4.66,13.7 l 0.06,15.92 c 0.01,1.41 -0.11,2.82 -0.47,4.24 -1.51,7.94 -7.5,15.65 -17.93,21.71 l -0.92,0.49 c -24.78,13.88 -64.19,13.84 -88.65,-0.14 -10.47,-5.98 -16.59,-13.64 -18.16,-21.51 -0.37,-1.47 -0.5,-2.95 -0.51,-4.42" /><path
         id="path48"
         style="fill:#1db3a0;fill-opacity:1;fill-rule:nonzero;stroke:none"
         d="m 1844.28,2556.03 c -16.34,0 -32.71,3.62 -45.14,10.86 -12.3,7.19 -18.47,16.53 -18.47,25.8 0,0.07 0,0.15 0,0.22 l 0.06,15.68 c 0.01,0.87 0.05,1.74 0.17,2.61 -1.23,-10.16 4.86,-20.58 18.29,-28.4 12.44,-7.25 28.81,-10.88 45.16,-10.88 16.06,0 32.1,3.51 44.39,10.54 12.03,6.88 18.24,15.88 18.63,24.96 l -0.06,-15.12 c -0.02,-4.68 -1.57,-9.34 -4.66,-13.7 -3.09,-4.41 -7.78,-8.51 -13.94,-12.05 -12.31,-7.02 -28.36,-10.52 -44.43,-10.52" /><path
         id="path50"
         style="fill:#babcba;fill-opacity:1;fill-rule:nonzero;stroke:none"
         d="m 1907.37,2607.42 v 0.8 c 0,0.04 0,0.09 0,0.13 0,1.37 -0.12,2.74 -0.47,4.11 0.01,0.06 0.03,0.12 0.04,0.18 0.36,-1.73 0.5,-3.48 0.43,-5.22 m -126.47,3.78 c 0.07,0.64 0.18,1.28 0.32,1.92 0,-0.04 0.01,-0.07 0.02,-0.11 -0.15,-0.6 -0.27,-1.21 -0.34,-1.81" /><path
         id="path52"
         style="fill:#09ac94;fill-opacity:1;fill-rule:nonzero;stroke:none"
         d="m 1844.35,2571.92 c -16.35,0 -32.72,3.63 -45.16,10.88 -13.43,7.82 -19.52,18.24 -18.29,28.4 0.07,0.6 0.19,1.21 0.34,1.81 v 0 c 1.51,-7.87 7.57,-15.58 17.99,-21.65 11.04,-6.43 25.16,-9.99 39.55,-10.66 1.91,-0.1 3.82,-0.15 5.74,-0.15 16.02,0 32.01,3.49 44.28,10.53 6.16,3.54 10.79,7.58 13.94,11.99 2.16,3 3.53,6.2 4.16,9.39 v 0 c 0.35,-1.37 0.47,-2.74 0.47,-4.11 0,-0.04 0,-0.09 0,-0.13 v -0.8 c -0.39,-9.08 -6.6,-18.08 -18.63,-24.96 -12.29,-7.03 -28.33,-10.54 -44.39,-10.54" /><path
         id="path54"
         style="fill:#26b6a6;fill-opacity:1;fill-rule:nonzero;stroke:none"
         d="m 1780.8,2626.88 -0.03,-9.44 c -0.01,-1.48 0.11,-2.95 0.47,-4.43 1.51,-7.87 7.57,-15.58 17.99,-21.65 11.04,-6.43 25.16,-9.99 39.55,-10.66 17.89,-0.93 36.28,2.5 50.02,10.38 6.16,3.54 10.79,7.58 13.94,11.99 2.16,3 3.53,6.2 4.16,9.39 0.37,1.41 0.5,2.89 0.5,4.3 l 0.04,9.74 c 0.04,9.41 -6.07,18.78 -18.4,25.96 -1.1,0.62 -2.21,1.24 -3.37,1.79 -24.85,12.58 -62.54,12.11 -86.2,-1.44 -12.45,-7.15 -18.69,-16.53 -18.67,-25.93" /><path
         id="path56"
         style="fill:#1db3a0;fill-opacity:1;fill-rule:nonzero;stroke:none"
         d="m 1844.52,2580.55 c -1.92,0 -3.83,0.05 -5.74,0.15 -14.39,0.67 -28.51,4.23 -39.55,10.66 -10.42,6.07 -16.48,13.78 -17.99,21.65 -0.35,1.45 -0.47,2.91 -0.47,4.36 0,0.03 0,0.05 0,0.07 l 0.03,9.44 c 0,0.23 0,0.47 0.01,0.71 0,-0.13 0,-0.27 0,-0.4 -0.08,-20.1 28.2,-36.51 63.17,-36.65 0.15,0 0.3,0 0.44,0 34.76,0 62.93,16.13 63.02,36.14 0,-0.02 0,-0.04 0,-0.07 0,-0.03 0,-0.07 0,-0.11 l -0.04,-9.74 c 0,-1.41 -0.13,-2.89 -0.5,-4.3 -0.63,-3.19 -2,-6.39 -4.16,-9.39 -3.15,-4.41 -7.78,-8.45 -13.94,-11.99 -12.27,-7.04 -28.26,-10.53 -44.28,-10.53" /><path
         id="path58"
         style="fill:#26b6a6;fill-opacity:1;fill-rule:nonzero;stroke:none"
         d="m 1780.81,2627.19 c -0.08,-20.1 28.2,-36.51 63.17,-36.65 34.97,-0.13 63.38,16.05 63.46,36.15 0.08,20.11 -28.21,36.51 -63.18,36.65 -34.96,0.14 -63.38,-16.05 -63.45,-36.15" /><path
         id="path60"
         style="fill:#26b6a6;fill-opacity:1;fill-rule:nonzero;stroke:none"
         d="m 1822.32,2664.53 -0.12,-32.79 0.16,-1.53 c 0.53,-2.73 2.63,-5.4 6.24,-7.5 3.82,-2.24 8.72,-3.47 13.7,-3.7 6.2,-0.32 12.57,0.86 17.34,3.59 2.13,1.23 3.74,2.63 4.83,4.16 0.75,1.04 1.22,2.15 1.44,3.25 l 0.18,1.49 0.12,32.9 c 0.02,3.26 -2.1,6.51 -6.37,9 l -1.17,0.62 c -8.62,4.36 -21.68,4.19 -29.87,-0.5 -4.32,-2.48 -6.48,-5.73 -6.48,-8.99" /><path
         id="path62"
         style="fill:#1db3a0;fill-opacity:1;fill-rule:nonzero;stroke:none"
         d="m 1844.29,2618.96 c -0.67,0 -1.33,0.01 -1.99,0.05 -4.98,0.23 -9.88,1.46 -13.7,3.7 -3.61,2.1 -5.71,4.77 -6.24,7.5 l -0.16,1.53 0.12,32.79 c 0,0.19 0.01,0.37 0.02,0.55 0,-0.14 -0.01,-0.29 -0.01,-0.44 -0.03,-6.96 9.77,-12.65 21.89,-12.7 0.05,0 0.09,0 0.14,0 12.05,0 21.82,5.59 21.85,12.52 0,-0.02 0,-0.04 0,-0.06 l -0.12,-32.9 -0.18,-1.49 c -0.22,-1.1 -0.69,-2.21 -1.44,-3.25 -1.09,-1.53 -2.7,-2.93 -4.83,-4.16 -4.26,-2.44 -9.8,-3.64 -15.35,-3.64 m 1.1,58.19 c -0.01,0 -0.01,0 -0.02,0 0.01,0 0.01,0 0.02,0 m -0.11,0 c -0.03,0 -0.05,0 -0.07,0 0.02,0 0.04,0 0.07,0 m -0.12,0.01 c -0.28,0 -0.56,0.01 -0.84,0.01 -0.05,0 -0.11,0 -0.16,0 -0.04,0 -0.08,0 -0.12,0 0.04,0 0.09,0 0.13,0 0.33,0 0.66,-0.01 0.99,-0.01" /><path
         id="path64"
         style="fill:#26b6a6;fill-opacity:1;fill-rule:nonzero;stroke:none"
         d="m 1822.33,2664.64 c -0.03,-6.96 9.77,-12.65 21.89,-12.7 12.12,-0.04 21.97,5.56 21.99,12.53 0.03,6.97 -9.77,12.65 -21.89,12.7 -12.12,0.05 -21.97,-5.56 -21.99,-12.53" /><path
         id="path66"
         style="fill:#06ab91;fill-opacity:1;fill-rule:nonzero;stroke:none"
         d="m 1844.31,2660.08 c -0.02,0 -0.04,0 -0.06,0 -4.3,0.01 -7.78,2.03 -7.77,4.5 0.01,2.47 3.48,4.45 7.76,4.45 0.02,0 0.03,0 0.05,0 4.3,-0.02 7.78,-2.03 7.77,-4.51 -0.01,-2.46 -3.47,-4.44 -7.75,-4.44" /><path
         id="path68"
         style="fill:#33535f;fill-opacity:1;fill-rule:nonzero;stroke:none"
         d="m 2742.08,2358.1 v 0 c -19.01,62.12 -96.64,113.52 -169.25,93.19 l 0.03,-0.02 c -10.43,-2.83 -21.39,-7.42 -32.7,-13.95 -70.4,-40.6 -127.46,-139.45 -127.46,-220.77 0,-15.2 1.99,-28.7 5.69,-40.35 l -0.02,0.01 c 19.01,-62.13 96.65,-113.23 169.24,-92.9 l -0.02,0.02 c 10.41,2.83 21.34,7.43 32.62,13.94 70.4,40.65 127.47,139.49 127.47,220.78 0,15.06 -1.96,28.46 -5.6,40.05" /><path
         id="path70"
         style="fill:#273e47;fill-opacity:1;fill-rule:nonzero;stroke:none"
         d="m 2620.21,2097.27 c 70.4,40.65 127.47,139.49 127.47,220.78 0,81.29 -57.07,114.26 -127.47,73.65 -70.4,-40.61 -127.47,-139.45 -127.46,-220.78 0,-81.31 57.07,-114.29 127.46,-73.65" /><path
         id="path72"
         style="fill:#33535f;fill-opacity:1;fill-rule:nonzero;stroke:none"
         d="m 2620.21,2301.52 c 27.08,15.64 49.02,2.96 49.02,-28.3 0,-31.27 -21.94,-69.28 -49.02,-84.91 -27.07,-15.64 -49.02,-2.96 -49.02,28.3 0,31.27 21.94,69.28 49.02,84.91" /><path
         id="path74"
         style="fill:#273e47;fill-opacity:1;fill-rule:nonzero;stroke:none"
         d="m 2636.99,2254.61 c 0,-10.69 -7.47,-23.7 -16.75,-29.12 -4.32,-2.51 -8.31,-2.89 -11.27,-1.48 l -1.23,0.71 c -2.7,1.94 -4.32,5.54 -4.32,10.5 0,10.7 7.54,23.71 16.82,29.12 4.32,2.51 8.24,2.9 11.21,1.48 l 1.22,-0.71 c 2.71,-1.87 4.32,-5.47 4.32,-10.5" /><path
         id="path76"
         style="fill:#26b6a6;fill-opacity:1;fill-rule:nonzero;stroke:none"
         d="m 2906.28,2099.14 c 0,-10.7 -7.48,-23.71 -16.75,-29.06 -2.71,-1.61 -5.09,-2.25 -7.29,-2.25 -1.99,0 -3.8,0.58 -5.59,1.61 l -267.68,154.57 -1.23,0.71 c -2.7,1.94 -4.32,5.54 -4.32,10.5 0,10.7 7.54,23.71 16.82,29.12 4.32,2.51 8.24,2.9 11.21,1.48 l 1.22,-0.71 267.68,-154.51 c 3.8,-2.19 5.93,-5.47 5.93,-11.46" /><path
         id="path78"
         style="fill:#33535f;fill-opacity:1;fill-rule:nonzero;stroke:none"
         d="m 3169.03,2111.67 v -0.01 c -19.01,62.13 -96.64,113.53 -169.24,93.19 l 0.03,-0.01 c -10.44,-2.83 -21.39,-7.42 -32.7,-13.95 -70.4,-40.61 -127.47,-139.45 -127.47,-220.77 0,-15.2 2.01,-28.7 5.71,-40.35 l -0.02,0.01 c 19,-62.13 96.64,-113.23 169.24,-92.9 l -0.03,0.02 c 10.41,2.83 21.34,7.42 32.62,13.94 70.39,40.64 127.46,139.49 127.46,220.77 0,15.07 -1.96,28.47 -5.6,40.06" /><path
         id="path80"
         style="fill:#273e47;fill-opacity:1;fill-rule:nonzero;stroke:none"
         d="m 3047.17,1850.84 c 70.39,40.64 127.46,139.49 127.46,220.77 0,81.29 -57.07,114.27 -127.47,73.66 -70.39,-40.61 -127.46,-139.45 -127.46,-220.78 0,-81.32 57.07,-114.3 127.47,-73.65" /><path
         id="path82"
         style="fill:#33535f;fill-opacity:1;fill-rule:nonzero;stroke:none"
         d="m 3047.16,2055.09 c 27.08,15.63 49.04,2.96 49.04,-28.3 0,-31.27 -21.96,-69.28 -49.04,-84.92 -27.07,-15.63 -49.02,-2.96 -49.02,28.31 0,31.26 21.95,69.28 49.02,84.91" /><path
         id="path84"
         style="fill:#273e47;fill-opacity:1;fill-rule:nonzero;stroke:none"
         d="m 3063.94,2008.18 c 0,-10.69 -7.47,-23.71 -16.75,-29.12 -4.31,-2.51 -8.31,-2.9 -11.27,-1.48 l -1.22,0.71 c -2.7,1.93 -4.31,5.54 -4.31,10.5 0,10.69 7.54,23.71 16.8,29.12 4.32,2.51 8.26,2.9 11.21,1.48 l 1.23,-0.71 c 2.71,-1.87 4.31,-5.48 4.31,-10.5" /><path
         id="path86"
         style="fill:#26b6a6;fill-opacity:1;fill-rule:nonzero;stroke:none"
         d="m 3104.53,1984.73 c 0,-10.69 -7.47,-23.7 -16.75,-29.05 -2.71,-1.61 -5.09,-2.26 -7.28,-2.26 -2,0 -3.8,0.58 -5.6,1.62 l -38.98,22.54 -1.22,0.71 c -2.7,1.93 -4.31,5.54 -4.31,10.5 0,10.69 7.54,23.71 16.8,29.12 4.32,2.51 8.26,2.9 11.21,1.48 l 1.24,-0.71 38.96,-22.48 c 3.81,-2.19 5.93,-5.48 5.93,-11.47" /><path
         id="path88"
         style="fill:#1d2f36;fill-opacity:1;fill-rule:nonzero;stroke:none"
         d="m 3080.29,1953.42 c -1.38,0 -2.65,0.28 -3.78,0.82 1.26,-0.52 2.56,-0.81 3.94,-0.82 -0.05,0 -0.11,0 -0.16,0 m 24.24,31.37 c -0.02,5.95 -2.13,9.23 -5.93,11.41 l -0.13,0.07 c 0.18,-0.07 0.35,-0.14 0.52,-0.22 l 1.22,-0.71 c 2.71,-1.87 4.32,-5.48 4.32,-10.5 0,-0.02 0,-0.04 0,-0.05" /><path
         id="path90"
         style="fill:#14b099;fill-opacity:1;fill-rule:nonzero;stroke:none"
         d="m 3080.45,1953.42 c -1.38,0.01 -2.68,0.3 -3.94,0.82 v 0 l -1.22,0.71 c -2.72,1.93 -4.33,5.54 -4.33,10.5 0,10.69 7.54,23.71 16.82,29.12 2.67,1.55 5.2,2.3 7.44,2.3 1.17,0 2.26,-0.21 3.25,-0.6 l 0.13,-0.07 c 3.8,-2.18 5.91,-5.46 5.93,-11.41 -0.03,-10.69 -7.49,-23.67 -16.75,-29.07 -2.61,-1.52 -5.11,-2.26 -7.33,-2.3" /><path
         id="path92"
         style="fill:#f6879f;fill-opacity:1;fill-rule:nonzero;stroke:none"
         d="m 3635,3714.88 c -47.74,-77.63 -136.89,-262.32 -164.2,-301.33 -43.8,50.77 -131.92,162.2 -151.47,184.69 -24.86,28.59 -102.41,74.49 -102.41,74.49 l -26.44,-116.54 c 0,0 170.61,-267.75 221.78,-318.78 32.53,-32.45 69.98,-53.15 146.36,27.71 71.14,75.3 240.06,300.29 240.06,300.29 l 4.96,267.46 c -81.82,5.52 -106.94,-17.65 -168.64,-117.99" /><path
         id="path94"
         style="fill:#f47089;fill-opacity:1;fill-rule:nonzero;stroke:none"
         d="m 3470.8,3413.55 c 18.28,-20.29 39.47,-49.53 45.32,-67.07 0,0 -0.51,40.07 -33.88,85.45 l -11.44,-18.38" /><path
         id="path96"
         style="fill:#273e47;fill-opacity:1;fill-rule:nonzero;stroke:none"
         d="m 3180.99,3801.75 -68.38,39.52 c 0,0 -0.01,-364.52 -0.01,-376.38 0,-11.86 -13.67,-23.71 -13.67,-23.71 l 68.38,-39.47 c 0,0 13.68,11.85 13.68,23.69 0,11.84 0,376.35 0,376.35" /><path
         id="path98"
         style="fill:#f6879f;fill-opacity:1;fill-rule:nonzero;stroke:none"
         d="m 3112.61,3689.35 c 0,0 -19.29,-5.03 -26.07,-35.27 -6.79,-30.24 -9.29,-87.78 8.39,-106.35 17.67,-18.57 41.46,-26.32 57,-19.18 29.06,13.36 18.87,72.68 -4.93,85.9 -38.03,21.14 -34.04,45.4 -34.04,45.4 l -0.35,29.5" /><path
         id="path100"
         style="fill:#33535f;fill-opacity:1;fill-rule:nonzero;stroke:none"
         d="m 3264.13,3802.41 -28.83,-36.71 0.14,-257.07 31.14,-49.59 -99.27,-57.33 c 8.62,7.79 13,15.69 13.68,23.69 v 329.03 l 83.14,47.98" /><path
         id="path102"
         style="fill:#26b6a6;fill-opacity:1;fill-rule:nonzero;stroke:none"
         d="m 3266.58,3459.04 v -15.79 l -99.27,-57.33 v 15.79 l 99.27,57.33" /><path
         id="path104"
         style="fill:#26b6a6;fill-opacity:1;fill-rule:nonzero;stroke:none"
         d="m 3167.31,3385.92 -68.38,39.47 v 15.79 l 68.38,-39.47 v -15.79" /><path
         id="path106"
         style="fill:#1db3a0;fill-opacity:1;fill-rule:nonzero;stroke:none"
         d="m 3167.31,3385.92 -68.38,39.47 v 15.79 l 68.38,-39.47 v -15.79" /><path
         id="path108"
         style="fill:#26b6a6;fill-opacity:1;fill-rule:nonzero;stroke:none"
         d="m 3184.14,3967.85 0.01,-0.01 c 11.61,6.95 27.77,6.1 45.66,-4.23 l 0.65,-0.37 c 35.35,-20.42 64.01,-70.06 64.01,-110.88 v -0.75 c 0,-21.15 -7.71,-35.76 -20.03,-42.12 h 0.01 l -51.77,-30.47 -86.38,160.62 47.84,28.21" /><path
         id="path110"
         style="fill:#b9e7de;fill-opacity:1;fill-rule:nonzero;stroke:none"
         d="m 3294.47,3852.36 c 0,0.08 0,0.17 0,0.25 0,-0.08 0,-0.17 0,-0.25 v 0 m 0,0.3 c 0,0.07 0,0.14 0,0.22 0,-0.08 0,-0.15 0,-0.22 m 0,0.23 c -0.07,10.93 -2.23,22.47 -5.96,33.91 l -33.37,-19.27 c -7.33,19.24 -18.17,37.93 -31.23,53.81 -6.12,7.44 -12.72,14.28 -19.7,20.2 -3.79,3.3 -7.7,6.33 -11.7,9.02 -2.44,1.69 -4.89,3.24 -7.35,4.65 -2.09,1.21 -4.21,2.29 -6.33,3.26 -2.1,0.96 -4.21,1.8 -6.33,2.52 l 11.64,6.86 0.01,-0.01 c 4.94,2.96 10.71,4.5 17.09,4.5 8.6,0 18.3,-2.8 28.57,-8.73 l 0.65,-0.37 c 35.19,-20.33 63.76,-69.63 64.01,-110.35 m -118.09,24.87 c -5.3,7.53 -11.08,14.61 -17.25,21.04 3,-3.12 5.91,-6.4 8.73,-9.82 2.96,-3.6 5.8,-7.35 8.52,-11.22" /><path
         id="path112"
         style="fill:#bde9e1;fill-opacity:1;fill-rule:nonzero;stroke:none"
         d="m 3294.47,3852.61 c 0,0.02 0,0.03 0,0.05 0,-0.02 0,-0.03 0,-0.05 m 0,0.27 c 0,0 0,0 0,0.01 0,-0.01 0,-0.01 0,-0.01" /><path
         id="path114"
         style="fill:#8ed9cd;fill-opacity:1;fill-rule:nonzero;stroke:none"
         d="m 3264.34,3803.54 c 0.72,4.03 1.1,8.25 1.1,12.61 v 0 0 c 0,11.21 -1.72,22.97 -4.89,34.72 -1.49,5.56 -3.31,11.13 -5.41,16.66 l 33.37,19.27 c 3.73,-11.44 5.89,-22.98 5.96,-33.91 0,-0.01 0,-0.01 0,-0.01 0,-0.08 0,-0.15 0,-0.22 0,-0.02 0,-0.03 0,-0.05 0,-0.08 0,-0.17 0,-0.25 v -0.75 c 0,-21.15 -7.71,-35.76 -20.03,-42.12 v 0 0 0 h 0.01 l -10.11,-5.95" /><path
         id="path116"
         style="fill:#bde9e1;fill-opacity:1;fill-rule:nonzero;stroke:none"
         d="m 3206.83,3808.5 h -0.01 c 0,0.01 0,0 0,0.01 l 0.01,-0.01 c 0,0 0,0 0,0" /><path
         id="path118"
         style="fill:#8ed9cd;fill-opacity:1;fill-rule:nonzero;stroke:none"
         d="m 3206.83,3808.5 -0.01,0.01 c -1.17,5.91 -2.73,11.87 -4.64,17.81 0.67,-2.06 1.29,-4.13 1.87,-6.19 v 0 c 1.08,-3.88 2.01,-7.77 2.78,-11.63 m -4.66,17.85 c -0.01,0.04 -0.02,0.08 -0.03,0.11 0.01,-0.03 0.02,-0.07 0.03,-0.11" /><path
         id="path120"
         style="fill:#26b6a6;fill-opacity:1;fill-rule:nonzero;stroke:none"
         d="m 3072.37,3928.54 0.03,-0.03 c 13.13,7.54 30.81,7.24 50.44,-2.36 2.06,-0.97 4.14,-2.09 6.27,-3.3 2.49,-1.44 4.91,-2.96 7.33,-4.65 4,-2.72 7.91,-5.72 11.72,-9.02 6.97,-5.96 13.56,-12.76 19.7,-20.2 16.42,-20 29.35,-44.44 36.19,-68.85 3.44,-12.33 5.32,-24.62 5.32,-36.37 0,-24.94 -8.55,-42.69 -22.46,-51.31 l 49.43,28.48 -0.06,0.11 c 17.26,10.97 29.16,30.57 29.16,55.11 0,11.21 -1.72,22.97 -4.89,34.72 -6.71,24.95 -19.83,50.03 -36.64,70.47 -6.12,7.44 -12.72,14.28 -19.7,20.2 -3.79,3.3 -7.7,6.33 -11.7,9.02 -2.44,1.69 -4.89,3.24 -7.35,4.65 -2.09,1.21 -4.21,2.29 -6.33,3.26 -19.39,8.83 -39.63,7.58 -55.99,-0.94 l -0.03,0.03 -1.39,-0.77 -1.75,-1.04 -47.3,-27.21" /><path
         id="path122"
         style="fill:#1db3a0;fill-opacity:1;fill-rule:nonzero;stroke:none"
         d="m 3186.91,3732.45 c 13.91,8.62 22.46,26.37 22.46,51.31 v 0 0 0 0 0 0 c 0,0.1 0,0.19 0,0.29 0,0.03 0,0.05 0,0.08 0,0.07 0,0.14 0,0.21 0,0.03 0,0.07 0,0.09 0,0.07 0,0.14 0,0.2 0,0.03 0,0.07 0,0.1 0,0.06 0,0.13 -0.01,0.2 0,0.03 0,0.05 0,0.09 0,0.07 0,0.14 0,0.21 0,0.02 0,0.05 0,0.07 0,0.08 0,0.16 0,0.24 0,0.01 0,0.03 0,0.05 -0.01,0.09 -0.01,0.18 -0.01,0.27 v 0.01 c -0.21,11.11 -2.07,22.67 -5.3,34.26 l 56.5,30.74 c 3.17,-11.75 4.89,-23.51 4.89,-34.72 0,-24.54 -11.9,-44.14 -29.16,-55.11 v 0 0 l 0.06,-0.11 -49.43,-28.48" /><path
         id="path124"
         style="fill:#26b6a6;fill-opacity:1;fill-rule:nonzero;stroke:none"
         d="m 3048.8,3876.49 c 0,-51.21 35.92,-113.47 80.27,-139.06 22.28,-12.89 42.49,-14.04 57.04,-5.45 l 0.8,0.47 c 13.91,8.62 22.46,26.37 22.46,51.31 0,51.22 -35.93,113.47 -80.26,139.09 -22.13,12.77 -42.2,14.01 -56.71,5.66 -14.57,-8.35 -23.6,-26.37 -23.6,-52.02" /><path
         id="path126"
         style="fill:#14b099;fill-opacity:1;fill-rule:nonzero;stroke:none"
         d="m 3170.92,3726.84 c 7.62,5.99 12.36,9.46 12.36,9.46 v 0 0 0 l -0.04,0.06 c 13.25,7.69 20.98,24.4 20.98,47.42 v 0 0 0 0 c 0,15.16 -3.26,31.32 -9.07,47.17 -3.62,10.03 -8.26,19.96 -13.71,29.41 -14.07,24.37 -33.51,45.65 -54.92,58.02 -11.85,6.83 -23.13,10.19 -33.12,10.19 -6.83,0 -13.05,-1.56 -18.44,-4.66 l -0.03,0.06 c 0,0 -5.39,-2.36 -14.4,-5.98 3.35,4.4 7.34,7.92 11.87,10.52 6.06,3.49 13.09,5.3 20.84,5.3 10.79,0 22.98,-3.52 35.87,-10.96 44.33,-25.62 80.26,-87.87 80.26,-139.09 0,-24.94 -8.55,-42.69 -22.46,-51.31 v 0 l -0.8,-0.47 c -1.64,-0.97 -3.34,-1.81 -5.12,-2.53 -3.16,-1.27 -6.52,-2.15 -10.07,-2.61" /><path
         id="path128"
         style="fill:#26b6a6;fill-opacity:1;fill-rule:nonzero;stroke:none"
         d="m 2802.63,3889.73 c 0,0 81,-41.57 150.18,-161.38 13.58,-23.53 24.32,-45.97 32.82,-66.81 34.74,-85.23 31.86,-143.93 31.86,-143.93 24.14,59.12 54.15,120.34 104.22,167.21 30.99,29.02 61.57,51.48 61.57,51.48 l -0.04,0.06 c 13.25,7.69 20.98,24.4 20.98,47.42 0,15.16 -3.26,31.32 -9.07,47.17 -3.62,10.03 -8.26,19.96 -13.71,29.41 -14.07,24.37 -33.51,45.65 -54.92,58.02 -19.94,11.5 -38.27,13.16 -51.56,5.53 l -0.03,0.06 c 0,0 -34.75,-15.24 -75.37,-27.57 -65.63,-19.93 -133.66,-15.31 -196.93,-6.67" /><path
         id="path130"
         style="fill:#b9e7de;fill-opacity:1;fill-rule:nonzero;stroke:none"
         d="m 3003.14,3687.26 c -22.94,55.47 -57.91,108.3 -99.35,148.86 -7.48,7.34 -15.16,14.24 -23.03,20.71 -3.27,2.69 -6.6,5.31 -9.93,7.84 h -0.04 c -4.75,3.6 -9.52,7.04 -14.38,10.27 -5.05,3.36 -10.13,6.56 -15.28,9.53 -0.51,0.29 -1.02,0.58 -1.52,0.87 18.78,-1.84 37.83,-3 57.01,-3 34.29,0 68.94,3.73 102.94,14.06 40.62,12.33 75.37,27.57 75.37,27.57 l 0.03,-0.06 c 5.39,3.1 11.61,4.66 18.44,4.66 9.99,0 21.27,-3.36 33.12,-10.19 21.41,-12.37 40.85,-33.65 54.92,-58.02 5.45,-9.45 10.09,-19.38 13.71,-29.41 5.81,-15.85 9.07,-32.01 9.07,-47.17 v 0 c 0,15.16 -3.26,31.32 -9.07,47.17 -54.74,-27.41 -139.64,-75.45 -192.01,-143.69" /><path
         id="path132"
         style="fill:#8ed9cd;fill-opacity:1;fill-rule:nonzero;stroke:none"
         d="m 3032.16,3551.82 c 0,0.58 0,1.16 0,1.75 v 0 0 c 0,27.87 -4.47,57.1 -12.62,86.36 -4.43,15.84 -9.94,31.69 -16.4,47.33 52.37,68.24 137.27,116.28 192.01,143.69 5.81,-15.85 9.07,-32.01 9.07,-47.17 0,-23.02 -7.73,-39.73 -20.98,-47.42 v 0 0 0 l 0.04,-0.06 c 0,0 -30.58,-22.46 -61.57,-51.48 -3.05,-2.86 -6.03,-5.77 -8.94,-8.74 -10.29,-10.48 -19.69,-21.58 -28.34,-33.14 -21.26,-28.44 -37.98,-59.63 -52.27,-91.12" /><path
         id="path134"
         style="fill:#26b6a6;fill-opacity:1;fill-rule:nonzero;stroke:none"
         d="m 2650.05,3774.17 c 0,-53.4 16.43,-111.85 43.8,-165.83 v -0.03 c 35.09,-69.13 88.02,-130.84 147.28,-165.05 105.52,-60.91 191.03,-11.51 191.03,110.31 0,27.87 -4.47,57.1 -12.62,86.36 -20.13,72.05 -62.63,144.2 -115.75,196.19 -7.48,7.34 -15.16,14.24 -23.03,20.71 -3.27,2.69 -6.6,5.31 -9.93,7.84 h -0.04 c -4.75,3.6 -9.52,7.04 -14.38,10.27 -5.05,3.36 -10.13,6.56 -15.28,9.53 -105.53,60.91 -191.08,11.55 -191.08,-110.3" /><path
         id="path136"
         style="fill:#1db3a0;fill-opacity:1;fill-rule:nonzero;stroke:none"
         d="m 2926.44,3417.18 c -25.67,0 -54.65,8.38 -85.31,26.08 -59.26,34.21 -112.19,95.92 -147.28,165.05 7.06,-9.27 12.23,-11.18 15.31,-11.18 2.16,0 3.28,0.95 3.28,0.95 v 0 c 32.86,-59.23 79.19,-111.52 129.6,-140.61 0.27,-0.16 0.54,-0.31 0.82,-0.47 24.68,-14.08 48.6,-21.62 69.22,-21.65 0.04,0 0.08,0 0.12,0 v 0 0 c 0.05,0 0.09,0 0.14,0 v 0 c 0.04,0 0.09,0 0.13,0 v 0 0 c 0.02,0 0.05,0 0.07,0 20.9,0.01 37.82,7.64 50.29,22.61 0.1,0.11 0.19,0.22 0.29,0.34 0.09,0.11 0.18,0.22 0.26,0.33 0.13,0.15 0.25,0.3 0.38,0.46 v 0 c 14.74,18.48 22.54,46.73 22.54,81.75 v 0 0 0 0 c 0,24.47 -3.9,50.4 -11.07,76.59 2.75,-3.78 6.32,-5.36 10.25,-5.35 12.47,0 28.6,15.87 34.03,27.85 h 0.03 c 8.15,-29.26 12.62,-58.49 12.62,-86.36 0,-86.42 -43.03,-136.39 -105.72,-136.39" /><path
         id="path138"
         style="fill:#26b6a6;fill-opacity:1;fill-rule:nonzero;stroke:none"
         d="m 2663.11,3767.36 c 0,-53.8 18.89,-114.54 49.33,-169.28 32.86,-59.23 79.19,-111.52 129.6,-140.61 25.08,-14.44 49.39,-22.16 70.3,-22.12 21.51,-0.04 38.82,7.98 51.42,23.74 14.74,18.48 22.54,46.73 22.54,81.75 0,24.47 -3.9,50.4 -11.07,76.59 -2.7,9.91 -5.86,19.84 -9.46,29.73 -6.26,17.25 -13.84,34.48 -22.52,51.15 -1.79,3.44 -3.61,6.83 -5.46,10.2 -3.06,5.62 -6.26,11.21 -9.59,16.67 -11.32,18.75 -24.02,36.6 -37.68,53 l -0.48,0.57 c -9.12,10.9 -18.65,21.14 -28.51,30.6 -7.1,6.8 -14.38,13.17 -21.79,19.09 -3.09,2.49 -6.23,4.88 -9.39,7.21 -3.8,2.76 -7.64,5.42 -11.52,7.98 -3.77,2.46 -7.56,4.78 -11.37,7 -25.15,14.55 -49.47,22.16 -70.37,22.19 -46.33,0 -73.98,-39.46 -73.98,-105.46" /><path
         id="path140"
         style="fill:#06ab91;fill-opacity:1;fill-rule:nonzero;stroke:none"
         d="m 2912.2,3435.35 c -20.65,0 -44.61,7.54 -69.34,21.65 -0.28,0.16 -0.55,0.31 -0.82,0.47 -50.41,29.09 -96.74,81.38 -129.6,140.61 v 0 c -30.44,54.74 -49.33,115.48 -49.33,169.28 0,66 27.65,105.46 73.98,105.46 20.9,-0.03 45.22,-7.64 70.37,-22.19 3.81,-2.22 7.6,-4.54 11.37,-7 3.88,-2.56 7.72,-5.22 11.52,-7.98 3.16,-2.33 6.3,-4.72 9.39,-7.21 7.41,-5.92 14.69,-12.29 21.79,-19.09 9.86,-9.46 19.39,-19.7 28.51,-30.6 l 0.48,-0.57 c 13.66,-16.4 26.36,-34.25 37.68,-53 3.33,-5.46 6.53,-11.05 9.59,-16.67 1.85,-3.37 3.67,-6.76 5.46,-10.2 8.68,-16.67 16.26,-33.9 22.52,-51.15 3.6,-9.89 6.76,-19.82 9.46,-29.73 7.17,-26.19 11.07,-52.12 11.07,-76.59 0,-35.02 -7.8,-63.27 -22.54,-81.75 v 0 c -0.13,-0.16 -0.25,-0.31 -0.38,-0.46 -0.08,-0.11 -0.17,-0.22 -0.26,-0.33 -0.1,-0.12 -0.19,-0.23 -0.29,-0.34 -12.47,-14.97 -29.39,-22.6 -50.29,-22.61 -0.02,0 -0.05,0 -0.07,0 v 0 c -0.04,0 -0.09,0 -0.13,0 v 0 c -0.05,0 -0.09,0 -0.14,0 m -20.12,177.75 0.45,-0.83 c 18.81,7.07 50.7,18.38 76.66,25.02 v 0 0 c -1.08,3.3 -2.22,6.56 -3.43,9.86 -6.26,17.24 -13.84,34.48 -22.53,51.14 -1.78,3.44 -3.61,6.84 -5.45,10.21 -3.07,5.62 -6.26,11.21 -9.6,16.66 -11.31,18.76 -24,36.6 -37.68,53 l -0.47,0.57 c -2.02,2.4 -4.04,4.78 -6.09,7.11 -25.12,-25.83 -58.45,-48.42 -58.45,-48.42 v 0 0 l 0.42,-0.79 c -7.23,-5.12 -11.29,-15.15 -11.29,-28.88 v -0.62 0 c 0,-32.23 22.71,-71.55 50.62,-87.66 l 0.54,-0.31 c 7.44,-4.3 14.75,-6.57 21.14,-6.57 h 0.01 c 1.8,0 3.52,0.17 5.15,0.51" /><path
         id="path142"
         style="fill:#26b6a6;fill-opacity:1;fill-rule:nonzero;stroke:none"
         d="m 2825.49,3737.42 67.04,-125.15 c 18.81,7.07 50.7,18.38 76.66,25.02 -1.08,3.3 -2.22,6.56 -3.43,9.86 -6.26,17.24 -13.84,34.48 -22.53,51.14 -1.78,3.44 -3.61,6.84 -5.45,10.21 -3.07,5.62 -6.26,11.21 -9.6,16.66 -11.31,18.76 -24,36.6 -37.68,53 l -0.47,0.57 c -2.02,2.4 -4.04,4.78 -6.09,7.11 -25.12,-25.83 -58.45,-48.42 -58.45,-48.42" /><path
         id="path144"
         style="fill:#84d5c9;fill-opacity:1;fill-rule:nonzero;stroke:none"
         d="m 2892.53,3612.27 -0.45,0.83 c 12.02,2.53 19.04,14.17 19.04,32.23 v 0.63 0 c 0,32.22 -22.71,71.54 -50.61,87.66 l -0.54,0.31 c -7.44,4.29 -14.75,6.57 -21.15,6.57 -5,0 -9.34,-1.34 -12.91,-3.87 l -0.42,0.79 c 0,0 33.33,22.59 58.45,48.42 2.05,-2.33 4.07,-4.71 6.09,-7.11 l 0.47,-0.57 c 13.68,-16.4 26.37,-34.24 37.68,-53 3.34,-5.45 6.53,-11.04 9.6,-16.66 1.84,-3.37 3.67,-6.77 5.45,-10.21 8.69,-16.66 16.27,-33.9 22.53,-51.14 1.21,-3.3 2.35,-6.56 3.43,-9.86 -25.96,-6.64 -57.85,-17.95 -76.66,-25.02" /><path
         id="path146"
         style="fill:#26b6a6;fill-opacity:1;fill-rule:nonzero;stroke:none"
         d="m 2886.93,3612.59 c 15.15,0 24.19,12.24 24.19,32.74 v 0.63 c 0,32.22 -22.71,71.54 -50.61,87.66 l -0.54,0.31 c -7.44,4.29 -14.75,6.57 -21.15,6.57 -15.14,0 -24.2,-12.24 -24.2,-32.75 v -0.62 c 0,-32.23 22.71,-71.55 50.62,-87.66 l 0.54,-0.31 c 7.44,-4.3 14.75,-6.57 21.14,-6.57 h 0.01" /><path
         id="path148"
         style="fill:#b9e7de;fill-opacity:1;fill-rule:nonzero;stroke:none"
         d="m 2886.93,3612.59 h -0.01 c -6.39,0 -13.7,2.27 -21.14,6.57 l -0.54,0.31 c -27.91,16.11 -50.62,55.43 -50.62,87.66 v 0.62 c 0,20.51 9.06,32.75 24.2,32.75 6.4,0 13.71,-2.28 21.15,-6.57 l 0.54,-0.31 c 27.9,-16.12 50.61,-55.44 50.61,-87.66 v -0.63 c 0,-18.06 -7.02,-29.7 -19.04,-32.23 -1.63,-0.34 -3.35,-0.51 -5.15,-0.51" /><path
         id="path150"
         style="fill:#dadbd8;fill-opacity:1;fill-rule:nonzero;stroke:none"
         d="m 2814.63,3965.1 c 8.33,0 15.07,6.75 15.07,15.07 v 145.77 c 0,8.32 -6.74,15.07 -15.07,15.07 -8.34,0 -15.07,-6.75 -15.07,-15.07 v -145.77 c 0,-8.32 6.73,-15.07 15.07,-15.07" /><path
         id="path152"
         style="fill:#dadbd8;fill-opacity:1;fill-rule:nonzero;stroke:none"
         d="m 2947.26,3929.55 c 5.22,0 10.28,2.7 13.08,7.54 l 72.87,126.24 c 4.17,7.21 1.7,16.42 -5.52,20.59 -7.17,4.16 -16.41,1.7 -20.59,-5.52 l -72.88,-126.24 c -4.17,-7.21 -1.69,-16.43 5.52,-20.59 2.38,-1.37 4.96,-2.02 7.52,-2.02" /><path
         id="path154"
         style="fill:#dadbd8;fill-opacity:1;fill-rule:nonzero;stroke:none"
         d="m 3085.25,3227.08 c 2.57,0 5.16,0.65 7.53,2.01 7.22,4.17 9.69,13.39 5.52,20.6 l -72.87,126.23 c -4.17,7.23 -13.39,9.7 -20.6,5.53 -7.22,-4.17 -9.69,-13.39 -5.53,-20.6 l 72.88,-126.24 c 2.8,-4.83 7.86,-7.53 13.07,-7.53" /><path
         id="path156"
         style="fill:#dadbd8;fill-opacity:1;fill-rule:nonzero;stroke:none"
         d="m 2814.63,3207.54 c 8.33,0 15.07,6.76 15.07,15.08 v 145.76 c 0,8.33 -6.74,15.08 -15.07,15.08 -8.34,0 -15.07,-6.75 -15.07,-15.08 v -145.76 c 0,-8.32 6.73,-15.08 15.07,-15.08" /><path
         id="path158"
         style="fill:#dadbd8;fill-opacity:1;fill-rule:nonzero;stroke:none"
         d="m 2609.08,3343.82 c 5.21,0 10.27,2.7 13.07,7.54 l 72.89,126.23 c 4.17,7.21 1.69,16.43 -5.52,20.61 -7.18,4.15 -16.43,1.69 -20.6,-5.53 l -72.89,-126.23 c -4.16,-7.21 -1.69,-16.43 5.53,-20.6 2.37,-1.37 4.96,-2.02 7.52,-2.02" /><path
         id="path160"
         style="fill:#dadbd8;fill-opacity:1;fill-rule:nonzero;stroke:none"
         d="m 2458.67,3494.27 c 2.56,0 5.14,0.65 7.52,2.03 l 126.23,72.88 c 7.2,4.16 9.69,13.38 5.52,20.59 -4.17,7.22 -13.38,9.68 -20.6,5.52 l -126.23,-72.88 c -7.22,-4.17 -9.69,-13.39 -5.52,-20.6 2.79,-4.83 7.86,-7.54 13.08,-7.54" /><path
         id="path162"
         style="fill:#dadbd8;fill-opacity:1;fill-rule:nonzero;stroke:none"
         d="m 2403.57,3699.8 h 145.77 c 8.33,0 15.07,6.75 15.07,15.08 0,8.32 -6.74,15.08 -15.07,15.08 h -145.77 c -8.33,0 -15.07,-6.76 -15.07,-15.08 0,-8.33 6.74,-15.08 15.07,-15.08" /><path
         id="path164"
         style="fill:#dadbd8;fill-opacity:1;fill-rule:nonzero;stroke:none"
         d="m 2584.86,3832.45 c 5.21,0 10.28,2.7 13.08,7.53 4.17,7.22 1.68,16.44 -5.52,20.61 l -126.23,72.88 c -7.17,4.16 -16.42,1.7 -20.6,-5.52 -4.17,-7.21 -1.7,-16.43 5.52,-20.6 l 126.23,-72.88 c 2.37,-1.37 4.96,-2.02 7.52,-2.02" /><path
         id="path166"
         style="fill:#dadbd8;fill-opacity:1;fill-rule:nonzero;stroke:none"
         d="m 2682,3929.55 c 2.56,0 5.15,0.65 7.52,2.02 7.21,4.16 9.69,13.39 5.52,20.59 l -72.89,126.24 c -4.17,7.22 -13.39,9.68 -20.59,5.52 -7.22,-4.17 -9.69,-13.39 -5.53,-20.59 l 72.89,-126.24 c 2.8,-4.84 7.86,-7.54 13.08,-7.54" /><path
         id="path168"
         style="fill:#f6879f;fill-opacity:1;fill-rule:nonzero;stroke:none"
         d="m 3319.33,3598.23 c -29.52,35.85 -31.11,58.66 -53.89,76.05 -22.8,17.4 -45.39,18.07 -78.53,7.79 -24.99,-7.75 -54.56,-4.77 -64.55,-14.32 -2.84,-2 2.02,-18.08 13.94,-23.62 14.35,-6.66 37.26,-4.47 54.18,-4.2 38.55,0.61 7.76,-37.87 45.67,-75.43 16.38,-27.16 83.18,33.73 83.18,33.73" /><path
         id="path170"
         style="fill:#17282f;fill-opacity:1;fill-rule:nonzero;stroke:none"
         d="m 4023.75,3889.85 c 14.37,44.1 66,98.04 103.45,147.24 42.47,55.8 80.66,169.52 -1.33,243.98 0,0 5.61,129.43 -126.18,153.56 -116.87,21.41 -218.52,-37.65 -342.07,-20.84 -60.49,8.23 -88.12,-60.9 -22.61,-127.05 0,0 -45.37,-47.37 -19.56,-102.66 25.79,-55.29 105.05,-46.42 105.05,-46.42 l 303.25,-247.81" /><path
         id="path172"
         style="fill:#17282f;fill-opacity:1;fill-rule:nonzero;stroke:none"
         d="m 4095.17,4293.86 c 3.4,5.04 7.79,9.5 12.74,13 12.14,8.64 27.13,12.32 41.93,14.16 53.44,6.65 110.62,-10.31 147.67,-49.38 35.6,-37.55 49.82,-91.09 51.46,-142.8 1.64,-51.71 -7.91,-103.04 -13.5,-154.47 -3.88,-35.74 -5.82,-72.1 -0.76,-107.83 4.32,-30.45 14.52,-67.63 34.98,-91.48 13.33,-15.52 34.71,-28.16 34.18,-50.57 -0.54,-22.94 -20.64,-34.04 -41.29,-37.34 -59.16,-9.45 -123.54,19.21 -160.31,65.39 -1.94,2.44 -3.82,4.92 -5.61,7.47 -31.97,45.03 -33.26,96.1 -33.02,149.11 0.25,57.34 16.09,112.99 25.92,169.09 4.95,28.29 9.72,56.94 10.58,85.7 0.55,18.29 0.7,40.89 -10.55,56.46 -12.7,17.55 -32.24,25.97 -53.66,23.71 -9.21,-0.97 -17.12,-4.71 -26.4,-1.78 -11.65,3.67 -20.46,14.41 -21.45,26.69 -0.71,8.82 2.13,17.48 7.09,24.87" /><path
         id="path174"
         style="fill:#f6879f;fill-opacity:1;fill-rule:nonzero;stroke:none"
         d="m 4054.66,1743.58 212.07,3.84 c -3.14,-141.57 -25.64,-298.71 -29.31,-431.55 -0.7,-25.01 0.62,-194.29 -8.81,-245.74 -14.17,-77.298 -105.92,-66.86 -110.79,-20.6 -4.86,46.26 5.91,243.89 5.61,264.27 0.81,85.19 -39.11,229 -60.05,381.92 -1.03,7.52 -7.75,40.54 -8.72,47.86" /><path
         id="path176"
         style="fill:#17282f;fill-opacity:1;fill-rule:nonzero;stroke:none"
         d="m 4083.25,1017.33 c -1.92,-45.42 2.1,-76.06 15.46,-104.17 13.36,-28.09 42.74,-39.441 74.14,-34.769 31.39,4.679 72.69,21.461 85.38,59.539 12.69,38.082 13.6,64.95 10.87,107.53 l -185.85,-28.13" /><path
         id="path178"
         style="fill:#33535f;fill-opacity:1;fill-rule:nonzero;stroke:none"
         d="m 4237.95,1332.11 c 12.51,-2.26 10.14,-63.27 11.3,-124.72 1.25,-65.86 17.98,-94.73 19.57,-148.79 1.84,-61.76 -4.11,-88.67 -29.17,-123.381 -25.06,-34.719 -104.32,-63.258 -136.28,-6.731 -26.04,46.094 -22.5,93.942 -13.61,154.542 9.19,62.63 16.15,106.64 18.39,154.66 2.13,45.88 3.43,90.45 14.89,94.42 0.18,-6.79 0.14,-15.38 0.37,-22.05 0.18,-5.12 -1.04,-29.96 6,-30.91 1.24,5.76 1.66,11.21 1.88,17.18 0.17,5.2 1.17,10.78 4.93,14.38 3.79,3.62 9.41,4.34 14.63,4.84 12.65,1.21 25.37,2.16 38.09,2.03 6.34,-0.07 12.68,-0.4 18.98,-1.1 5.1,-0.58 11.09,-1.62 15.75,-3.89 2.86,-1.4 5.4,-3.8 6.21,-6.88 0.58,-2.28 0.19,-4.68 -0.04,-7.03 -0.43,-4.21 -0.32,-8.48 0.31,-12.67 0.29,-1.84 1.31,-4.17 3.16,-3.91 1.5,0.2 2.26,1.97 2.42,3.47 0.79,7.36 0.4,12.8 0.92,21.39 0.23,3.97 0.13,9.43 0.47,13.4 0.35,3.91 0.7,7.82 0.83,11.75" /><path
         id="path180"
         style="fill:#273e47;fill-opacity:1;fill-rule:nonzero;stroke:none"
         d="m 4267.71,1076.23 c 0.34,-8.92 1.93,-67.88 -14.98,-76.781 -18.3,-9.64 -23.11,37.081 -23.11,37.081 0,0 -39.02,16.38 -100.18,-3.37 2.05,-9.75 -10.12,-39.988 -25.53,-31.79 -15.31,8.14 -14.9,75.55 -14.89,76.43 -8.31,-58.12 -10.94,-104.562 14.35,-149.312 31.96,-56.527 111.22,-27.988 136.27,6.731 25.07,34.711 31.02,61.621 29.18,123.381 -0.17,6.19 -0.57,12.01 -1.11,17.63" /><path
         id="path182"
         style="fill:#17282f;fill-opacity:1;fill-rule:nonzero;stroke:none"
         d="m 4224.62,1033.09 c -1.96,-22.06 20.55,-16.81 24.62,14.21 4.08,31.03 -5.53,106.57 0.01,160.09 -1.16,61.45 1.21,122.46 -11.3,124.72 l -0.16,-2.25 -1.44,-31.01 c -0.08,-4.52 -0.1,-8.53 -0.62,-13.28 -4.2,-44.97 -6.6,-132.47 -6.86,-173.96 -0.26,-41.48 -2.28,-56.46 -4.25,-78.52" /><path
         id="path184"
         style="fill:#17282f;fill-opacity:1;fill-rule:nonzero;stroke:none"
         d="m 4136.29,1033.09 c -1.96,22.06 -3.98,37.04 -4.24,78.52 -0.26,41.18 -2.62,127.64 -6.77,172.91 -2.32,7.83 -1.74,21.83 -1.87,25.54 -0.21,6.23 -0.2,14.07 -0.34,20.62 l -0.1,1.39 c -8.29,-3.02 -11.23,-27.35 -13.03,-58 -0.2,-17.79 0.4,-39.88 1.73,-66.68 5.54,-53.52 -4.18,-129.49 -0.11,-160.52 4.07,-31.02 26.7,-35.84 24.73,-13.78" /><path
         id="path186"
         style="fill:#f6879f;fill-opacity:1;fill-rule:nonzero;stroke:none"
         d="m 3662.78,1463.76 c 1.57,43.84 -27.76,451.04 -27.76,451.04 l 200.68,-127.16 c -43.14,-257.42 -52.33,-318.13 -53.09,-360.24 0.33,-0.98 1.19,-4.56 1.14,-10.79 -0.18,-50.01 -56.63,-76.99 -100.65,-110.33 -17.4,-13.16 -67.98,-52.05 -119.08,-77.73 -31.99,-16.07 -96.95,-17.54 -105,3.04 53.58,40.91 131.5,102.15 174.11,148.87 20.35,22.3 28.08,39.47 29.65,83.3" /><path
         id="path188"
         style="fill:#17282f;fill-opacity:1;fill-rule:nonzero;stroke:none"
         d="m 3367.67,1177.76 c -2.74,0 -5.96,-27.37 8.96,-40.24 17.22,-14.85 66.87,-40.41 133.68,-31.76 66.81,8.65 102.97,27.58 129.7,49.95 26.72,22.38 64.2,53.94 94.41,60.61 28.07,6.19 58.55,18.91 67.54,27.59 8.98,8.68 7.72,47.26 7.72,47.26 l -442.01,-113.41" /><path
         id="path190"
         style="fill:#33535f;fill-opacity:1;fill-rule:nonzero;stroke:none"
         d="m 3783.04,1439.62 c 0,0 8.39,-0.09 10.12,-9.02 2.05,-10.63 4.28,-41.54 8.7,-58.99 6.13,-24.26 10.25,-73.96 6.57,-93.72 -3.68,-19.77 -49.44,-33.51 -78.68,-44.65 -29.86,-11.38 -64.41,-34.83 -94.73,-59.84 -31.39,-25.88 -97.43,-52.82 -140.97,-52.51 -51.52,0.38 -109.52,17.05 -122.81,40.94 -16.45,29.55 -3.56,46.68 72.82,82.08 14.46,6.71 65.25,36.77 82.56,47.67 46.83,29.48 93.22,70.52 114.76,122.69 2.52,6.1 5.17,12.85 10.99,15.96 4.46,2.37 9.84,2.04 14.85,1.33 12.73,-1.78 25.17,-5.55 36.76,-11.08 10.25,-4.88 24.8,-10.57 24.58,-23.7 -0.08,-4.57 -1.4,-9.02 -2.88,-13.34 -0.92,-2.68 -1.63,-6.25 0.71,-7.83 2.22,-1.5 5.16,0.21 7.15,1.99 8,7.17 13.86,16.35 20.59,24.71 3.6,4.49 7.54,8.78 12.09,12.32 4.13,3.22 9.41,4.83 13.07,8.48 4.65,4.62 3.54,10.36 3.75,16.51" /><path
         id="path192"
         style="fill:#273e47;fill-opacity:1;fill-rule:nonzero;stroke:none"
         d="m 3635.02,1173.4 c 13.32,10.99 27.47,21.61 41.67,31.1 v 0.07 c 0,0 -89.84,-54.61 -126.14,-29.83 -23.39,15.97 -12.26,35.37 -11.7,41.58 0.57,6.2 -57.13,32.75 -79.83,35.45 -6.33,-3.5 -11.63,-6.32 -14.96,-7.86 -76.38,-35.4 -89.28,-52.53 -72.82,-82.08 13.29,-23.89 55.31,-42.52 121.89,-42.52 43.55,0.01 110.5,28.21 141.89,54.09" /><path
         id="path194"
         style="fill:#17282f;fill-opacity:1;fill-rule:nonzero;stroke:none"
         d="m 3545.13,1234.4 c -47.5,-19 -27.23,-27.87 -13.93,-29.77 13.3,-1.9 93.25,44.79 142,83.38 50.86,40.24 82.93,84.23 101.83,99.01 7.04,5.51 14.61,12.28 21.36,18.61 -1.26,10.45 -2.26,19.98 -3.23,24.97 -1.73,8.93 -10.12,9.02 -10.12,9.02 -0.21,-6.15 0.9,-11.89 -3.75,-16.51 -3.66,-3.65 -8.94,-5.26 -13.07,-8.48 -4.55,-3.54 -8.49,-7.83 -12.09,-12.32 -6.73,-8.36 -12.59,-17.54 -20.59,-24.71 -41.48,-52.64 -140.92,-124.21 -188.41,-143.2" /><path
         id="path196"
         style="fill:#e7e8e5;fill-opacity:1;fill-rule:nonzero;stroke:none"
         d="m 3538.21,1219.29 c -6.23,7.57 -17.42,15.99 -31.34,22.84 -13.91,6.79 -30.5,11.9 -47.33,11.91 -2.78,0 -5.57,-0.14 -8.35,-0.44 -2.58,-0.28 -4.45,-2.6 -4.17,-5.18 0.28,-2.58 2.6,-4.45 5.18,-4.17 2.43,0.27 4.88,0.39 7.34,0.39 14.89,0.01 30.28,-4.63 43.19,-10.96 12.9,-6.28 23.37,-14.38 28.2,-20.34 1.64,-2.01 4.6,-2.3 6.61,-0.66 2.01,1.64 2.31,4.6 0.67,6.61" /><path
         id="path198"
         style="fill:#e7e8e5;fill-opacity:1;fill-rule:nonzero;stroke:none"
         d="m 3579.64,1244.79 c -6.23,7.57 -17.42,15.98 -31.34,22.83 -13.91,6.8 -30.5,11.9 -47.32,11.92 -2.78,0 -5.57,-0.15 -8.36,-0.45 -2.58,-0.28 -4.44,-2.6 -4.16,-5.18 0.28,-2.58 2.6,-4.44 5.18,-4.16 2.42,0.26 4.87,0.38 7.34,0.38 14.89,0.02 30.28,-4.62 43.19,-10.95 12.9,-6.28 23.36,-14.38 28.19,-20.34 1.64,-2.01 4.61,-2.31 6.62,-0.67 2.01,1.64 2.3,4.61 0.66,6.62" /><path
         id="path200"
         style="fill:#e7e8e5;fill-opacity:1;fill-rule:nonzero;stroke:none"
         d="m 3621.08,1268.94 c -6.23,7.57 -17.42,15.98 -31.34,22.83 -13.91,6.8 -30.5,11.9 -47.33,11.92 -2.78,0 -5.57,-0.14 -8.35,-0.45 -2.58,-0.28 -4.45,-2.6 -4.17,-5.18 0.28,-2.58 2.6,-4.44 5.18,-4.16 2.43,0.26 4.88,0.38 7.34,0.38 14.89,0.02 30.28,-4.62 43.2,-10.95 12.9,-6.29 23.36,-14.38 28.19,-20.34 1.64,-2.01 4.6,-2.31 6.61,-0.67 2.01,1.64 2.31,4.6 0.67,6.62" /><path
         id="path202"
         style="fill:#e7e8e5;fill-opacity:1;fill-rule:nonzero;stroke:none"
         d="m 3659.49,1296.52 c -6.23,7.57 -17.42,15.99 -31.34,22.83 -13.91,6.8 -30.5,11.91 -47.32,11.92 -2.78,0 -5.58,-0.14 -8.36,-0.44 -2.58,-0.28 -4.45,-2.6 -4.17,-5.18 0.28,-2.59 2.6,-4.45 5.18,-4.17 2.43,0.26 4.88,0.39 7.35,0.39 14.89,0.01 30.28,-4.63 43.18,-10.96 12.9,-6.28 23.37,-14.38 28.2,-20.34 1.64,-2.01 4.6,-2.31 6.61,-0.66 2.01,1.64 2.31,4.6 0.67,6.61" /><path
         id="path204"
         style="fill:#e7e8e5;fill-opacity:1;fill-rule:nonzero;stroke:none"
         d="m 3697.15,1324.05 c -8.28,10.41 -21.14,19.09 -36,25.35 -14.87,6.24 -31.77,10 -48.24,10 -3.63,0 -7.23,-0.18 -10.79,-0.57 -2.58,-0.28 -4.45,-2.59 -4.17,-5.18 0.28,-2.58 2.6,-4.44 5.18,-4.16 3.2,0.34 6.47,0.51 9.78,0.51 15.02,0.01 30.84,-3.48 44.6,-9.27 13.76,-5.76 25.43,-13.85 32.27,-22.52 1.61,-2.03 4.57,-2.37 6.6,-0.76 2.04,1.61 2.38,4.57 0.77,6.6" /><path
         id="path206"
         style="fill:#26b6a6;fill-opacity:1;fill-rule:nonzero;stroke:none"
         d="m 4098.59,3247.35 c 28.69,-61.18 109.27,-161.69 135.13,-230.48 52.91,-140.81 27.62,-242.72 12.34,-427.94 -16.38,-198.41 -32.11,-355.27 -32.11,-355.27 3,-35.28 52.01,-104.08 58.35,-259.92 5.93,-145.7 -10.04,-330.91 -10.04,-330.91 0,0 -110.02,-60.99 -191.37,0.53 0,0 -78.51,374.88 -101.52,557.26 -20.08,159.16 -43.01,287.66 -43.01,287.66 l -62.2,-296.02 c 0,0 4.46,-79.94 11.04,-147.87 10.39,-107.28 -49.61,-317.92 -49.61,-317.92 0,0 -113.68,-33.93 -183.1,27.64 0,0 -26.96,307.38 -24.1,459.98 3.23,173.49 33.45,755.17 54.81,1003.18 l 425.39,30.08" /><path
         id="path208"
         style="fill:#06ab91;fill-opacity:1;fill-rule:nonzero;stroke:none"
         d="m 4157.15,1615.88 c -28.49,0 -58.98,6.85 -86.26,27.48 0,0 -78.51,374.88 -101.52,557.26 -20.08,159.16 -43.01,287.66 -43.01,287.66 v 0 l -42.5,346.87 c 0,0 -82.94,10.77 -153.44,93.39 0,0 14.1,-79.33 115.85,-118.73 l 56.08,-309.08 -38.13,-308.16 -0.06,-0.31 v 0 c 0,0 0,-0.05 0.01,-0.15 l -0.01,-0.07 0.01,0.04 c 0.23,-4.13 4.63,-81.6 11.03,-147.69 0.83,-8.59 1.21,-17.84 1.21,-27.6 -0.04,-112.06 -50.82,-290.32 -50.82,-290.32 0,0 -31.25,-9.32 -70.98,-9.32 -36.06,0 -79.09,7.67 -112.12,36.96 0,0 -24.31,277.24 -24.32,435.84 0,8.4 0.07,16.46 0.22,24.14 3.23,173.49 33.45,755.17 54.81,1003.18 v 0 c 37.55,-20.21 94.06,-41.24 163.45,-41.24 1.18,0 2.36,0 3.54,0.02 135.16,1.4 207.81,26.99 258.4,71.3 v 0 c 28.69,-61.18 109.27,-161.69 135.13,-230.48 24.07,-64.08 31.96,-120.1 31.96,-179.59 0.01,-71.23 -11.29,-147.42 -19.62,-248.35 -16.38,-198.41 -32.11,-355.27 -32.11,-355.27 v 0 0 c 3,-35.28 52.01,-104.08 58.35,-259.92 0.93,-22.77 1.32,-46.5 1.32,-70.33 0.01,-128.73 -11.36,-260.58 -11.36,-260.58 0,0 -48.62,-26.95 -105.11,-26.95" /><path
         id="path210"
         style="fill:#c3c5c2;fill-opacity:1;fill-rule:nonzero;stroke:none"
         d="m 3897.25,2349.62 c -0.06,0.03 0.04,-0.02 -0.02,0.01 l 29.13,138.65 -29.11,-138.66" /><path
         id="path212"
         style="fill:#babcba;fill-opacity:1;fill-rule:nonzero;stroke:none"
         d="m 3864.17,2192.08 c 0,0.01 0,0.02 0,0.03 l 0.05,0.46 33.01,157.06 c 0.06,-0.03 -0.04,0.02 0.02,-0.01 l -33.08,-157.54" /><path
         id="path214"
         style="fill:#0a8573;fill-opacity:1;fill-rule:nonzero;stroke:none"
         d="m 3864.16,2192.04 0.01,0.07 c 0,-0.01 0,-0.02 0,-0.03 l -0.01,-0.04" /><path
         id="path216"
         style="fill:#0a8573;fill-opacity:1;fill-rule:nonzero;stroke:none"
         d="m 3864.22,2192.57 38.13,308.16 -56.08,309.08 c -101.75,39.4 -115.85,118.73 -115.85,118.73 70.5,-82.62 153.44,-93.39 153.44,-93.39 l 42.5,-346.87 -62.14,-295.71" /><path
         id="path218"
         style="fill:#e7e8e5;fill-opacity:1;fill-rule:nonzero;stroke:none"
         d="m 4129.76,1031.85 0.89,0.33 c 4.34,1.6 24.27,8.29 50.02,8.28 14.48,0 30.79,-2.1 47.29,-8.32 2.43,-0.92 5.14,0.31 6.05,2.73 0.92,2.43 -0.31,5.15 -2.74,6.06 -17.76,6.7 -35.22,8.93 -50.6,8.93 -31.28,-0.01 -54.06,-9.16 -54.41,-9.29 -2.41,-0.96 -3.58,-3.7 -2.61,-6.11 0.97,-2.41 3.71,-3.58 6.11,-2.61" /><path
         id="path220"
         style="fill:#e7e8e5;fill-opacity:1;fill-rule:nonzero;stroke:none"
         d="m 4123.89,1080.67 1,0.34 c 4.9,1.61 27.16,8.34 55.99,8.33 16.2,0 34.47,-2.12 52.95,-8.38 2.46,-0.83 5.13,0.48 5.96,2.94 0.83,2.46 -0.48,5.13 -2.94,5.96 -19.66,6.67 -38.95,8.88 -55.97,8.88 -34.61,-0.01 -59.86,-9.12 -60.18,-9.23 -2.45,-0.88 -3.71,-3.57 -2.83,-6.02 0.88,-2.44 3.57,-3.7 6.02,-2.82" /><path
         id="path222"
         style="fill:#e7e8e5;fill-opacity:1;fill-rule:nonzero;stroke:none"
         d="m 4124.92,1127.68 1.03,0.39 c 5.04,1.87 27.85,9.62 55.71,9.6 16.35,0 34.39,-2.64 51.73,-10.55 2.36,-1.07 5.15,-0.03 6.23,2.33 1.07,2.37 0.03,5.15 -2.33,6.23 -18.87,8.59 -38.28,11.39 -55.63,11.4 -33.8,-0.02 -59.93,-10.57 -60.26,-10.68 -2.4,-0.97 -3.57,-3.71 -2.6,-6.12 0.97,-2.41 3.71,-3.57 6.12,-2.6" /><path
         id="path224"
         style="fill:#e7e8e5;fill-opacity:1;fill-rule:nonzero;stroke:none"
         d="m 4124.32,1171.62 0.2,0.1 c 2.37,1.09 24.75,10.9 54.64,10.88 16.73,0 35.79,-3.03 55.22,-12.28 2.35,-1.11 5.15,-0.12 6.27,2.23 1.11,2.34 0.12,5.14 -2.23,6.26 -20.88,9.94 -41.4,13.2 -59.26,13.19 -34.07,-0.02 -58.52,-11.73 -58.9,-11.9 -2.34,-1.12 -3.33,-3.92 -2.21,-6.27 1.12,-2.34 3.93,-3.33 6.27,-2.21" /><path
         id="path226"
         style="fill:#e7e8e5;fill-opacity:1;fill-rule:nonzero;stroke:none"
         d="m 4124.21,1218.8 1.09,0.45 c 5.25,2.18 29.04,11.17 57.92,11.16 16.5,0 34.63,-2.91 52.1,-11.54 2.32,-1.15 5.14,-0.19 6.29,2.13 1.15,2.33 0.2,5.15 -2.13,6.3 -19.05,9.41 -38.67,12.51 -56.26,12.51 -35.21,-0.03 -62.5,-12.3 -62.85,-12.43 -2.37,-1.07 -3.43,-3.85 -2.37,-6.22 1.06,-2.37 3.84,-3.43 6.21,-2.36" /><path
         id="path228"
         style="fill:#f6879f;fill-opacity:1;fill-rule:nonzero;stroke:none"
         d="m 4014.21,3824.21 h 0.01 c 40.91,-2.81 115.33,-9.36 115.33,-9.36 42.94,-23.96 53.79,-43.61 61.77,-100.64 3.39,-24.25 -16.37,-88.98 -33.36,-180.95 l -38.35,-172.6 -21.02,-113.31 c -50.59,-44.31 -123.24,-69.9 -258.4,-71.3 -71.01,-0.74 -128.81,20.67 -166.99,41.22 -1.89,80.89 -13.61,161.42 -15.2,208.59 -63.78,52.4 -85.18,138.75 -50.39,195.07 80.82,130.85 159.4,213.23 211.45,209.01 l 195.15,-5.73" /><path
         id="path230"
         style="fill:#33535f;fill-opacity:1;fill-rule:nonzero;stroke:none"
         d="m 3651.28,3425.04 13.79,-86.43 c 0,0 63.7,-40.84 212.44,-34.83 206.82,8.35 243.43,62.96 243.43,62.96 15.88,59.65 29.65,124.3 42,192.37 0,0 -81.74,18.28 -88,110.24 -6.27,91.96 50.28,145.88 50.28,145.88 l -101.47,6.27 c 0,0 -191.06,12.93 -220.11,11.37 -29.05,-1.57 -75.59,-34.04 -130.45,-104.98 -54.87,-70.96 -140.87,-195.14 -21.91,-302.85" /><path
         id="path232"
         style="fill:#f6879f;fill-opacity:1;fill-rule:nonzero;stroke:none"
         d="m 4533.4,3429.46 c -82.47,100.14 -174.47,203.77 -233.59,275.01 -91.94,110.76 -110.01,107.61 -174.59,110.76 -33.76,-25.61 -34.93,-102.94 9.93,-244.59 66.66,-56.03 236.57,-229.37 236.57,-229.37 -7.56,-17.99 -79.3,-149.11 -125.67,-204.66 -8.2,-9.84 -34.36,-10.91 -47.04,-12.8 -34.01,-5.07 -64.58,-14.94 -93.89,-27.25 -22.94,-9.64 -38.15,-7.89 -38.37,-14.04 -0.26,-7.91 6.22,-23.73 28.1,-26.25 11.02,-1.27 39.34,5.63 59.36,8.81 0,0 -7.64,-8.6 -38.44,-25.91 -12.92,-7.26 -68.24,-34.42 -90.36,-44.97 -28.64,-13.64 -21.46,-65.56 59.26,-82.76 41.21,-8.78 95.03,-4.04 178.2,64.67 24.28,20.06 60.45,61.81 89.01,95.25 75.33,88.2 120.89,145.04 161.51,201.1 67.59,93.27 47.23,123.96 20.01,157" /><path
         id="path234"
         style="fill:#2c4954;fill-opacity:1;fill-rule:nonzero;stroke:none"
         d="m 3878.56,3376.84 c -74.59,0 -113.97,60.98 -113.97,60.98 0,0 47.1,-36.55 109.21,-36.55 16.19,0 33.41,2.48 51.08,8.75 85.43,30.3 97.89,104.98 97.89,104.98 0,0 9.07,-97.67 -98.69,-130.97 -16.38,-5.06 -31.57,-7.19 -45.52,-7.19" /><path
         id="path236"
         style="fill:#f6879f;fill-opacity:1;fill-rule:nonzero;stroke:none"
         d="m 3662.69,4092.3 c 3.22,-141.73 49.22,-176.76 72.27,-186.82 23.05,-10.07 67.55,-3.93 110.73,3.22 v -85.06 c 0,0 -90,-76.92 -86.27,-115.87 3.82,-39.06 107.31,-44.22 163.27,-6.07 40.85,27.82 81.19,85.14 93.93,100.23 4.63,5.49 7.13,12.38 7.13,19.57 v 200.14 c 0,0 29.1,-15.22 56.6,8.33 38.44,32.93 40.98,85.04 12.94,112.95 -13.52,13.45 -48.7,17.42 -70.95,-15.89 -10.36,-43.72 -28.73,-52.34 -39.41,-38.74 -52.01,66.16 -68.59,35.55 -144.56,80.94 -87.67,52.4 -102.81,108.38 -119.61,163.34 -31.71,-18.82 -59.99,-73.08 -56.07,-240.27" /><path
         id="path238"
         style="fill:#17282f;fill-opacity:1;fill-rule:nonzero;stroke:none"
         d="m 3820.26,4110.58 c -0.47,-9.33 6.44,-17.24 15.41,-17.67 8.99,-0.43 16.65,6.79 17.12,16.13 0.47,9.33 -6.44,17.23 -15.42,17.66 -8.98,0.43 -16.64,-6.79 -17.11,-16.12" /><path
         id="path240"
         style="fill:#17282f;fill-opacity:1;fill-rule:nonzero;stroke:none"
         d="m 3687.96,4110.58 c -0.47,-9.33 6.43,-17.24 15.41,-17.67 8.99,-0.43 16.65,6.79 17.11,16.13 0.47,9.33 -6.43,17.23 -15.42,17.66 -8.97,0.43 -16.64,-6.79 -17.1,-16.12" /><path
         id="path242"
         style="fill:#f47089;fill-opacity:1;fill-rule:nonzero;stroke:none"
         d="m 3777.28,4142.92 -3.15,-119.22 -62.75,19.44 z" /><path
         id="path244"
         style="fill:#f47089;fill-opacity:1;fill-rule:nonzero;stroke:none"
         d="m 3845.73,3908.73 c 45.58,5.98 139.34,32.91 153.96,69.98 0,0 -4.87,-23.29 -32.88,-47.3 -28.01,-24.01 -121.08,-51.06 -121.08,-51.06 v 28.38" /><path
         id="path246"
         style="fill:#17282f;fill-opacity:1;fill-rule:nonzero;stroke:none"
         d="m 3838.37,4190.54 41.59,-25.35 c 6.8,11.97 3.01,27.35 -8.47,34.34 -11.47,7 -26.31,2.97 -33.12,-8.99" /><path
         id="path248"
         style="fill:#c35363;fill-opacity:1;fill-rule:nonzero;stroke:none"
         d="m 3846.29,4022.19 -55.48,-28.55 c 8.53,-15.44 27.88,-21.56 43.2,-13.68 15.32,7.89 20.82,26.79 12.28,42.23" /><path
         id="path250"
         style="fill:#f47089;fill-opacity:1;fill-rule:nonzero;stroke:none"
         d="m 3819.78,3981.36 c 0,-1.61 0.24,-3.16 0.48,-4.71 4.69,0.08 9.37,1.06 13.75,3.31 12.01,6.18 17.86,19.13 15.77,31.87 -16.61,-0.29 -30,-13.79 -30,-30.47" /><path
         id="path252"
         style="fill:#17282f;fill-opacity:1;fill-rule:nonzero;stroke:none"
         d="m 3674.18,4177.38 46.32,16.18 c -4.01,13.06 -17.64,20.03 -30.44,15.56 -12.79,-4.46 -19.9,-18.67 -15.88,-31.74" /><path
         id="path254"
         style="fill:#17282f;fill-opacity:1;fill-rule:nonzero;stroke:none"
         d="m 657.137,1491.97 c -33.215,-10.36 -68.899,-12.34 -103.125,-6.32 -55.153,9.7 -124.715,45.63 -119.922,111.8 0.547,7.56 2.281,15.13 6.047,21.71 12.492,21.83 41.375,25.88 65.558,32.78 46.094,13.16 86.356,45.58 109.043,87.81 24.696,45.98 28.242,100.38 25.293,152.49 -0.941,16.6 -2.472,33.44 0.949,49.71 2.747,13.07 8.61,25.3 15.7,36.61 23.34,37.21 60.504,65.07 102.082,79.24 14.718,5.03 31.543,8.25 45.367,1.11 9.043,-4.68 15.601,-15.89 14.516,-26.16 -1.266,-11.89 -14.196,-19.47 -21.543,-27.87 -18.075,-20.67 -31.907,-46.45 -32.489,-74.43 -0.57,-27.41 11.305,-53.3 21.004,-78.94 30.496,-80.7 39.953,-174.56 0.434,-251.25 -26.391,-51.22 -73.914,-91.14 -128.914,-108.29" /><path
         id="path256"
         style="fill:#c35363;fill-opacity:1;fill-rule:nonzero;stroke:none"
         d="m 1454.93,1855.55 c 0,0 67.39,485.2 54.09,659.94 -6.81,89.61 -52.98,118.06 -119.23,112.94 -66.25,-5.11 -451.118,-221.46 -451.118,-221.46 l 53.621,-130.38 315.827,99.08 c 0,0 -32.11,-186.14 -39.53,-221.53 -7.43,-35.39 -22.95,-83.01 -35.27,-125.7 -6.05,-20.97 -14.47,-48.27 -14.47,-61.5 0,-31.11 236.08,-111.39 236.08,-111.39" /><path
         id="path258"
         style="fill:#aa3b4b;fill-opacity:1;fill-rule:nonzero;stroke:none"
         d="m 1308.12,2375.66 c 43.92,8.69 87.85,34.53 101.64,55.2 0,0 -6.89,-32 -43.94,-55.2 -37.04,-23.19 -63.39,-32.84 -63.39,-32.84 l 5.69,32.84" /><path
         id="path260"
         style="fill:#c35363;fill-opacity:1;fill-rule:nonzero;stroke:none"
         d="m 1382.6,1397.82 c -113.35,45.49 -251.62,87.77 -328.74,132.29 -77.106,44.52 -81.391,56.03 -167.747,106.54 -86.351,50.51 22.559,244.04 22.559,244.04 0,0 161.388,55.86 237.578,85.95 48.3,11.14 104.29,30.31 159.97,27.51 55.69,-2.8 162.75,-1.36 202.83,-38.23 40.09,-36.87 38.62,-112.98 38.62,-112.98 l 129.43,-130.06 -294.5,-315.06" /><path
         id="path262"
         style="fill:#26b6a6;fill-opacity:1;fill-rule:nonzero;stroke:none"
         d="m 1582.14,1808.3 -34.47,34.64 c 0,0 -4.52,5.31 -6.62,17.92 -22.29,6.66 -72.43,11.09 -192.27,-59.59 -157.62,-92.95 -198.04,-316.05 -198.04,-316.05 l -0.01,-0.07 c 19.25,-7.72 50.27,-19.68 71.03,-27.39 17.35,103.65 86.06,209.15 175.78,272.64 89.72,63.48 184.6,77.9 184.6,77.9" /><path
         id="path264"
         style="fill:#08917e;fill-opacity:1;fill-rule:nonzero;stroke:none"
         d="m 1221.76,1457.76 c -12.05,4.48 -27.56,10.39 -42.21,16.06 0.02,0 0.05,-0.01 0.07,-0.02 0,71.43 67.03,193.82 136.09,254.76 94.29,83.2 231.96,114.38 231.96,114.38 v 0 l 34.47,-34.64 c 0,0 -94.88,-14.42 -184.6,-77.9 -89.66,-63.44 -158.34,-168.85 -175.75,-272.44 -0.01,-0.07 -0.02,-0.14 -0.03,-0.2" /><path
         id="path266"
         style="fill:#26b6a6;fill-opacity:1;fill-rule:nonzero;stroke:none"
         d="m 1000.69,1744.36 c 24.33,-83.32 13.46,-130.76 -1.67,-182.43 14.42,-8.42 31.19,-18.16 54.85,-31.82 21.4,-12.36 87.89,-44.97 125.75,-56.31 0,71.43 67.03,193.82 136.09,254.76 94.29,83.2 231.96,114.38 231.96,114.38 0,0 1.47,76.11 -38.62,112.98 -40.08,36.87 -131.47,41.02 -183.83,41.13 -52.36,0.11 -102.23,-5.53 -102.23,-5.53 -50.81,-12.83 -85.7,-28.39 -85.72,-28.4 0.19,-0.04 115.15,-12.79 49.58,-46.09 -89.85,-45.63 -218.42,-15.5 -218.42,-15.5 -19.879,-3.65 -39.801,-10.62 -59.758,-20.84 0,0 61.91,-33.23 92.018,-136.33" /><path
         id="path268"
         style="fill:#06ab91;fill-opacity:1;fill-rule:nonzero;stroke:none"
         d="m 1179.62,1473.8 c -37.86,11.34 -104.35,43.95 -125.75,56.31 -23.66,13.66 -40.43,23.4 -54.85,31.82 8.69,29.67 15.97,57.94 15.99,92.42 0.02,25.56 -3.96,54.53 -14.32,90.01 -30.108,103.1 -92.018,136.33 -92.018,136.33 19.957,10.22 39.879,17.19 59.758,20.84 0,0 41.64,-9.75 94.09,-9.75 39.71,0 85.61,5.59 124.33,25.25 14.54,7.38 20.2,13.75 20.21,19.2 0.03,19.13 -69.65,26.86 -69.79,26.89 0.02,0.01 34.91,15.57 85.72,28.4 0,0 48.89,5.53 100.68,5.53 0.51,0 1.04,0 1.55,0 52.36,-0.11 143.75,-4.26 183.83,-41.13 37.35,-34.35 38.63,-102.75 38.63,-111.95 0,-0.67 -0.01,-1.03 -0.01,-1.03 0,0 -137.67,-31.18 -231.96,-114.38 -69.06,-60.94 -136.09,-183.33 -136.09,-254.76" /><path
         id="path270"
         style="fill:#c35363;fill-opacity:1;fill-rule:nonzero;stroke:none"
         d="m 3154.07,992.441 c -112.66,65.049 -162.08,86.799 -246.96,202.919 -63.26,156.62 -121.62,415.29 -166.92,489.1 -34.85,56.78 -44.48,88.2 -154.11,87.09 -222.57,-2.24 -773.04,-158.15 -773.04,-158.15 l -213.88,-91.69 -37.18,-66.73 c 19.82,-21.11 47.91,-17.59 80.13,-14.07 30.79,3.36 65.36,6.72 100.1,-11.41 71.1,-37.1 90.89,-111.52 194.63,-102.75 207.71,17.57 330.92,71.56 438.56,110.25 89.77,32.27 201.07,66.15 201.07,66.15 9.61,-57.79 23.99,-101.94 67.74,-168.03 58.01,-87.65 71.87,-103.31 114.84,-175.81 0,0 2.48,-9.75 11.16,-20.51 10.96,-20.6 9.42,-56.14 11.21,-80.82 6.55,-90.5 43.56,-27.81 171.97,-138.511 29.99,-25.86 58.16,-47.469 98.38,-56.387 35.68,-7.902 80.97,-0.391 116.36,8.059 32.68,7.8 42.6,21.05 62.98,50.339 18.06,25.942 -47.34,53.821 -77.04,70.961" /><path
         id="path272"
         style="fill:#33535f;fill-opacity:1;fill-rule:nonzero;stroke:none"
         d="m 1355.1,1408.61 c 0,0 11.28,148.12 128.98,235.44 105.68,78.39 158.51,93.4 185.32,84.51 26.81,-8.88 125.13,-21.27 191.95,-16.43 50.22,3.64 456.05,72.06 721.34,69.74 104.85,-0.92 141.65,-27.74 174.78,-119.46 33.74,-93.43 87.04,-282.87 87.04,-282.87 0,0 -44.8,-84.93 -174.03,-83.74 0,0 -38.25,38.46 -68.7,100.33 -24.75,50.29 -29.5,99.73 -29.5,99.73 0,0 -392.18,-217.71 -605.88,-246.07 -213.7,-28.37 -611.3,158.82 -611.3,158.82" /><path
         id="path274"
         style="fill:#273e47;fill-opacity:1;fill-rule:nonzero;stroke:none"
         d="m 2590.37,1601.47 c 0,0 -26.6,-29.09 -40.61,-77.22 -1.06,3.88 -2.17,7.85 -3.37,12.08 -16.45,57.98 -35.25,104.98 -67.37,134.76 -32.12,29.77 -61.9,39.17 -135.54,35.42 -73.65,-3.75 -502.6,-77.2 -502.6,-77.2 -9.39,32.74 -26.55,41.27 -26.55,41.27 11.6,-26.2 6.45,-59.58 -11.63,-74.32 l -78.17,-317.72 c 86.28,-24.82 173.49,-37.83 241.87,-28.75 190.43,25.27 522.59,200.9 592.66,238.85 l 13.22,7.22 c -2.34,38.41 18.09,105.61 18.09,105.61" /><path
         id="path276"
         style="fill:#273e47;fill-opacity:1;fill-rule:nonzero;stroke:none"
         d="m 2779.3,1031.65 c -7.6,-4.35 2.51,-38.021 8.43,-46.158 5.91,-8.14 26.6,-21.703 50.13,-27.582 28.95,-7.238 54.35,-22.73 84.2,-48.738 18.67,-16.274 62.37,-47.703 111.64,-62.871 49.25,-15.172 105.91,-16.762 158.87,9.109 55.52,27.11 53.66,55.039 48.03,75.68 l -461.3,100.56" /><path
         id="path278"
         style="fill:#26b6a6;fill-opacity:1;fill-rule:nonzero;stroke:none"
         d="m 2906.76,1196.17 -5.48,14.03 c 9.98,6.07 40.73,-37.29 81.41,-82.23 34.19,-37.76 79.11,-75.25 105.02,-89.63 82.77,-45.93 112.81,-53.551 142.11,-78.211 37.62,-31.66 -5.36,-76.219 -76.14,-96.988 -73.7,-21.621 -133.84,6.101 -179.39,33.769 -32.03,19.442 -78.47,57.41 -102.04,73.281 -23.57,15.868 -76.39,27.231 -93.86,49.079 -9.6,12.01 -7.06,43.62 -9.43,71.31 -2.17,25.4 -17.68,69.57 -8.98,70.22 l 11.17,-20.52 c 63.68,-17.16 136.56,21.23 135.61,55.89" /><path
         id="path280"
         style="fill:#14b099;fill-opacity:1;fill-rule:nonzero;stroke:none"
         d="m 3100.86,855.398 c -50.1,0 -92.43,20.774 -126.57,41.512 -32.03,19.442 -78.47,57.41 -102.04,73.281 -23.57,15.868 -76.39,27.231 -93.86,49.079 -9.6,12.01 -7.06,43.62 -9.43,71.31 -1.7,19.94 -11.63,51.46 -11.61,64.39 0.01,3.54 0.76,5.69 2.63,5.83 l 11.17,-20.52 c 10.82,-2.91 21.9,-4.22 32.84,-4.22 10.78,0 21.41,1.27 31.52,3.54 0.88,0.1 1.77,0.15 2.68,0.15 36.04,0 97.42,-78.65 126.83,-108.1 41.55,-41.58 69.53,-65.091 89,-66.17 25.5,23.36 49.91,38.71 69.44,43.43 -19.53,10.83 -35.17,15.55 -85.45,55.32 -52.6,41.62 -115.7,123.17 -131.25,131.9 0,0.01 0,0.03 0,0.04 l -5.48,14.03 c 0.63,0.39 1.34,0.57 2.14,0.57 11.77,0 41.16,-40.71 79.27,-82.8 34.19,-37.76 79.11,-75.25 105.02,-89.63 82.77,-45.93 112.81,-53.551 142.11,-78.211 9.59,-8.07 13.94,-16.981 13.93,-26.117 -0.03,-26.711 -37.33,-55.403 -90.07,-70.871 -18.46,-5.422 -36.08,-7.743 -52.82,-7.743" /><path
         id="path282"
         style="fill:#96414d;fill-opacity:1;fill-rule:nonzero;stroke:none"
         d="m 2834.17,1139.4 c 40.27,8.65 72.5,33.04 72.53,56.06 l 0.06,0.67 v 0 c 0.01,-0.21 0.01,-0.42 0.01,-0.63 0,-22.78 -31.58,-47 -71.26,-55.9 -0.45,-0.06 -0.9,-0.12 -1.34,-0.2" /><path
         id="path284"
         style="fill:#069c86;fill-opacity:1;fill-rule:nonzero;stroke:none"
         d="m 3054.02,965.48 c -19.47,1.079 -47.45,24.59 -89,66.17 -29.41,29.45 -90.79,108.1 -126.83,108.1 -0.91,0 -1.8,-0.05 -2.68,-0.15 39.68,8.9 71.26,33.12 71.26,55.9 0,0.21 0,0.42 -0.01,0.63 15.55,-8.73 78.65,-90.28 131.25,-131.9 50.28,-39.77 65.92,-44.49 85.45,-55.32 -19.53,-4.72 -43.94,-20.07 -69.44,-43.43" /><path
         id="path286"
         style="fill:#273e47;fill-opacity:1;fill-rule:nonzero;stroke:none"
         d="m 3018.32,970.941 c 11.77,15.329 24.23,27.571 37.48,35.899 13.26,8.33 27.25,12.82 42.55,12.83 2.24,0 4.5,-0.1 6.8,-0.3 2.59,-0.22 4.86,1.7 5.09,4.29 0.22,2.58 -1.7,4.86 -4.28,5.08 -2.57,0.22 -5.1,0.33 -7.61,0.33 -17.18,0.01 -33.07,-5.14 -47.56,-14.27 -14.5,-9.14 -27.68,-22.191 -39.92,-38.14 -1.58,-2.058 -1.2,-5.012 0.86,-6.59 2.06,-1.582 5.01,-1.191 6.6,0.871" /><path
         id="path288"
         style="fill:#273e47;fill-opacity:1;fill-rule:nonzero;stroke:none"
         d="m 2980.01,999.148 c 11.76,15.332 24.22,27.562 37.47,35.902 13.26,8.33 27.25,12.82 42.55,12.83 2.24,0 4.51,-0.1 6.81,-0.3 2.59,-0.22 4.86,1.7 5.09,4.28 0.22,2.59 -1.7,4.87 -4.28,5.09 -2.57,0.22 -5.11,0.33 -7.62,0.33 -17.19,0.01 -33.07,-5.15 -47.56,-14.28 -14.51,-9.13 -27.68,-22.18 -39.92,-38.13 -1.58,-2.06 -1.19,-5.011 0.87,-6.589 2.06,-1.582 5.01,-1.191 6.6,0.867" /><path
         id="path290"
         style="fill:#273e47;fill-opacity:1;fill-rule:nonzero;stroke:none"
         d="m 2941.7,1027.35 c 11.76,15.34 24.22,27.57 37.47,35.9 13.26,8.34 27.25,12.82 42.55,12.84 2.24,0 4.51,-0.1 6.81,-0.3 2.58,-0.22 4.86,1.69 5.09,4.28 0.22,2.59 -1.7,4.86 -4.28,5.09 -2.57,0.22 -5.11,0.33 -7.62,0.33 -17.19,0.01 -33.07,-5.15 -47.56,-14.28 -14.51,-9.13 -27.68,-22.18 -39.92,-38.13 -1.58,-2.06 -1.19,-5.01 0.87,-6.59 2.06,-1.59 5.01,-1.2 6.59,0.86" /><path
         id="path292"
         style="fill:#273e47;fill-opacity:1;fill-rule:nonzero;stroke:none"
         d="m 2907.02,1058.85 c 11.76,15.33 24.22,27.57 37.47,35.9 13.26,8.33 27.25,12.82 42.56,12.83 2.23,0 4.5,-0.1 6.79,-0.3 2.59,-0.22 4.87,1.7 5.09,4.29 0.22,2.58 -1.7,4.86 -4.28,5.08 -2.56,0.22 -5.1,0.33 -7.6,0.33 -17.19,0.01 -33.08,-5.14 -47.57,-14.27 -14.5,-9.14 -27.68,-22.19 -39.92,-38.14 -1.58,-2.06 -1.19,-5.01 0.86,-6.59 2.06,-1.58 5.02,-1.19 6.6,0.87" /><path
         id="path294"
         style="fill:#273e47;fill-opacity:1;fill-rule:nonzero;stroke:none"
         d="m 2878.44,1096.53 c 11.76,15.33 24.22,27.57 37.46,35.9 13.27,8.33 27.25,12.82 42.56,12.83 2.24,0 4.51,-0.1 6.81,-0.29 2.58,-0.23 4.86,1.69 5.08,4.28 0.23,2.58 -1.69,4.86 -4.28,5.08 -2.56,0.22 -5.1,0.33 -7.61,0.33 -17.19,0.01 -33.08,-5.14 -47.56,-14.27 -14.51,-9.14 -27.68,-22.19 -39.92,-38.14 -1.58,-2.06 -1.19,-5.01 0.87,-6.59 2.06,-1.58 5.01,-1.19 6.59,0.87" /><path
         id="path296"
         style="fill:#c35363;fill-opacity:1;fill-rule:nonzero;stroke:none"
         d="m 2914.2,833.852 c -111.27,43.73 -164.48,91.878 -249.36,208.008 -63.25,156.62 -129.4,480.59 -174.71,554.4 -34.85,56.78 -76.05,92.87 -183.11,79.21 -220.78,-28.18 -570.52,-101.26 -570.52,-101.26 l -150.83,66.15 -222.53,-231.3 c 58.94,-30.27 85.48,-77.39 146.76,-121.49 65.09,-46.85 98.88,-78.09 202.63,-80.24 168.43,-3.49 307.17,96.68 414.8,135.37 89.78,32.27 175.63,87.63 175.63,87.63 1.32,-47.15 22.32,-142.71 98.99,-248.71 61.59,-85.18 71.86,-103.31 114.83,-175.81 0,0 2.49,-9.759 11.17,-20.509 10.95,-20.602 9.42,-56.153 11.21,-80.821 6.54,-90.5 43.55,-27.808 171.97,-138.511 29.99,-25.86 58.15,-47.469 98.39,-56.387 35.66,-7.91 75.19,-6.402 110.58,2.047 32.68,7.801 52.65,24.5 68.75,56.351 21.3,42.168 -42.74,53.329 -74.65,65.872" /><path
         id="path298"
         style="fill:#33535f;fill-opacity:1;fill-rule:nonzero;stroke:none"
         d="m 2420.88,1155.27 c -8.77,8.07 -15.01,16.03 -21.93,25.6 -76.65,106.02 -98.44,191.85 -99.77,239 0,0 -44.77,-25.47 -174.68,-97.6 -99.99,-55.53 -230.06,-141.76 -405.55,-133.01 -90.31,4.5 -150.2,41.17 -213.93,89.85 -43.46,33.21 -74,87.63 -149.92,129.5 27.49,88.73 46.06,202.96 218.46,269.75 l 229.14,-82.1 c 0,0 263.07,60.09 484.55,82.1 142.84,14.19 159.12,-3.24 193.94,-60.05 40.53,-66.15 77.87,-220.49 124.53,-385.21 -12.13,-19.41 -102.35,-84.11 -184.84,-77.83" /><path
         id="path300"
         style="fill:#273e47;fill-opacity:1;fill-rule:nonzero;stroke:none"
         d="m 2536.1,876.672 c -7.61,-4.352 2.51,-38.024 8.43,-46.16 5.91,-8.141 26.6,-21.711 50.12,-27.582 28.97,-7.25 54.37,-22.731 84.21,-48.75 18.66,-16.27 62.38,-47.688 111.63,-62.871 49.27,-15.161 105.91,-16.758 158.89,9.113 55.52,27.109 53.65,55.039 48.02,75.687 l -461.3,100.563" /><path
         id="path302"
         style="fill:#26b6a6;fill-opacity:1;fill-rule:nonzero;stroke:none"
         d="m 2664.84,1041.86 -5.54,14.1 c 9.99,6.08 39.5,-38.03 80.19,-82.968 34.19,-37.773 79.11,-75.262 105.02,-89.64 82.78,-45.93 112.82,-53.543 142.11,-78.204 37.61,-31.668 -5.36,-76.226 -76.14,-97 -73.71,-21.617 -133.84,6.102 -179.39,33.774 -32.02,19.449 -78.47,57.41 -102.04,73.277 -23.57,15.871 -76.39,27.231 -93.86,49.09 -9.59,12 -7.06,43.609 -9.42,71.301 -2.18,25.41 -17.7,69.58 -8.99,70.22 l 11.17,-20.509 c 63.68,-17.16 137.84,21.899 136.89,56.559" /><path
         id="path304"
         style="fill:#14b099;fill-opacity:1;fill-rule:nonzero;stroke:none"
         d="m 2857.66,700.422 c -50.1,0 -92.43,20.758 -126.57,41.5 -32.02,19.449 -78.47,57.41 -102.04,73.277 -23.57,15.871 -76.39,27.231 -93.86,49.09 -9.59,12 -7.06,43.609 -9.42,71.301 -1.71,19.902 -11.6,51.308 -11.62,64.301 -0.01,3.599 0.74,5.779 2.63,5.919 l 11.17,-20.509 c 10.68,-2.879 21.67,-4.18 32.54,-4.18 10.61,0 21.11,1.238 31.14,3.438 1.08,0.16 2.2,0.242 3.34,0.242 36.05,0 97.43,-78.692 126.86,-108.129 41.53,-41.59 69.51,-65.09 88.99,-66.18 25.49,23.36 49.91,38.719 69.45,43.43 -19.54,10.84 -35.19,15.558 -85.46,55.328 -52.45,41.488 -114.18,122.05 -129.97,131.18 0,0.25 0.01,0.5 0.01,0.75 0,0.23 0,0.45 -0.01,0.68 l -5.45,13.88 -0.09,0.22 c 0.63,0.38 1.33,0.56 2.1,0.56 11.62,0 39.94,-41.4 78.09,-83.528 34.19,-37.773 79.11,-75.262 105.02,-89.64 82.78,-45.93 112.82,-53.543 142.11,-78.204 9.58,-8.066 13.94,-16.976 13.93,-26.117 -0.03,-26.722 -37.33,-55.402 -90.07,-70.883 -18.46,-5.406 -36.08,-7.726 -52.82,-7.726" /><path
         id="path306"
         style="fill:#96414d;fill-opacity:1;fill-rule:nonzero;stroke:none"
         d="m 2590.36,984.332 0.06,0.047 c 40.67,8.59 73.64,33.121 74.27,56.131 0.05,-0.02 0.1,-0.05 0.15,-0.08 -0.72,-22.76 -33.13,-47.059 -73.21,-55.871 -0.43,-0.059 -0.85,-0.137 -1.27,-0.227" /><path
         id="path308"
         style="fill:#069c86;fill-opacity:1;fill-rule:nonzero;stroke:none"
         d="m 2810.82,810.492 c -19.48,1.09 -47.46,24.59 -88.99,66.18 -29.43,29.437 -90.81,108.129 -126.86,108.129 -1.14,0 -2.26,-0.082 -3.34,-0.242 40.08,8.812 72.49,33.111 73.21,55.871 15.79,-9.13 77.52,-89.692 129.97,-131.18 50.27,-39.77 65.92,-44.488 85.46,-55.328 -19.54,-4.711 -43.96,-20.07 -69.45,-43.43" /><path
         id="path310"
         style="fill:#273e47;fill-opacity:1;fill-rule:nonzero;stroke:none"
         d="m 2775.12,815.949 c 11.77,15.34 24.22,27.571 37.47,35.903 13.26,8.328 27.25,12.82 42.55,12.828 2.24,0 4.51,-0.09 6.81,-0.289 2.58,-0.219 4.86,1.691 5.08,4.281 0.23,2.59 -1.69,4.859 -4.28,5.09 -2.56,0.218 -5.1,0.328 -7.61,0.328 -17.18,0.012 -33.07,-5.149 -47.56,-14.281 -14.5,-9.129 -27.67,-22.188 -39.92,-38.129 -1.58,-2.059 -1.19,-5.008 0.87,-6.598 2.06,-1.582 5.01,-1.191 6.59,0.867" /><path
         id="path312"
         style="fill:#273e47;fill-opacity:1;fill-rule:nonzero;stroke:none"
         d="m 2736.81,844.16 c 11.77,15.34 24.22,27.57 37.47,35.899 13.26,8.332 27.25,12.82 42.55,12.832 2.24,0 4.51,-0.09 6.81,-0.289 2.58,-0.231 4.86,1.687 5.08,4.277 0.23,2.582 -1.69,4.863 -4.28,5.082 -2.56,0.23 -5.1,0.328 -7.61,0.328 -17.18,0.012 -33.07,-5.137 -47.56,-14.269 -14.5,-9.141 -27.67,-22.188 -39.92,-38.141 -1.58,-2.059 -1.19,-5.008 0.87,-6.59 2.06,-1.578 5.01,-1.187 6.59,0.871" /><path
         id="path314"
         style="fill:#273e47;fill-opacity:1;fill-rule:nonzero;stroke:none"
         d="m 2698.5,872.371 c 11.77,15.328 24.22,27.57 37.47,35.899 13.26,8.332 27.25,12.82 42.55,12.832 2.24,0 4.51,-0.102 6.81,-0.293 2.58,-0.227 4.86,1.691 5.08,4.281 0.22,2.582 -1.69,4.859 -4.28,5.082 -2.56,0.219 -5.1,0.328 -7.61,0.328 -17.18,0.012 -33.07,-5.141 -47.56,-14.27 -14.5,-9.14 -27.68,-22.191 -39.92,-38.14 -1.58,-2.059 -1.19,-5.008 0.87,-6.59 2.06,-1.578 5.01,-1.191 6.59,0.871" /><path
         id="path316"
         style="fill:#273e47;fill-opacity:1;fill-rule:nonzero;stroke:none"
         d="m 2663.81,903.859 c 11.77,15.34 24.23,27.571 37.48,35.903 13.26,8.328 27.25,12.82 42.55,12.828 2.24,0 4.5,-0.09 6.8,-0.289 2.59,-0.219 4.86,1.691 5.08,4.281 0.23,2.59 -1.69,4.859 -4.28,5.09 -2.56,0.219 -5.09,0.328 -7.6,0.328 -17.18,0.012 -33.07,-5.148 -47.56,-14.281 -14.51,-9.129 -27.68,-22.18 -39.93,-38.129 -1.58,-2.059 -1.19,-5.008 0.87,-6.598 2.06,-1.582 5.01,-1.191 6.59,0.867" /><path
         id="path318"
         style="fill:#273e47;fill-opacity:1;fill-rule:nonzero;stroke:none"
         d="m 2635.24,941.539 c 11.76,15.34 24.21,27.57 37.46,35.902 13.26,8.34 27.25,12.821 42.56,12.829 2.24,0 4.5,-0.09 6.8,-0.29 2.59,-0.218 4.87,1.692 5.09,4.282 0.22,2.59 -1.69,4.859 -4.28,5.09 -2.56,0.218 -5.1,0.328 -7.61,0.328 -17.19,0.011 -33.08,-5.149 -47.57,-14.282 -14.5,-9.128 -27.67,-22.187 -39.91,-38.128 -1.58,-2.059 -1.19,-5.008 0.87,-6.598 2.06,-1.582 5.01,-1.192 6.59,0.867" /><path
         id="path320"
         style="fill:#c35363;fill-opacity:1;fill-rule:nonzero;stroke:none"
         d="m 908.672,1880.69 c 0,0 -275.086,147.05 -318.625,166.84 l 240.383,141.37 -51.055,132.63 c 0,0 -353.09,-115.41 -420.73,-151.98 -35.661,-19.28 -55.961,-47.04 -56.036,-74.48 -0.129,-45.72 26.75,-102.75 87.02,-154.13 128.266,-109.34 319.051,-213.35 488.48,-306.68 56.821,-30.78 120.911,-72.33 120.911,-72.33 19.23,40.75 43.4,182.67 -90.348,318.76" /><path
         id="path322"
         style="fill:#aa3b4b;fill-opacity:1;fill-rule:nonzero;stroke:none"
         d="m 590.047,2047.53 c -35.266,-19.55 -92.086,-40.45 -130.555,-45.52 0,0 72.278,-18.47 158.649,31.7 l -28.094,13.82" /><path
         id="path324"
         style="fill:#17282f;fill-opacity:1;fill-rule:nonzero;stroke:none"
         d="m 1189.25,2409.92 -1.81,4.69 c -55.78,144.69 -148.9,148.32 -300.249,88.35 -111.824,-44.31 -201.062,-127.6 -207.015,-239.51 -4.465,-84.06 32.004,-166.1 96.226,-220.51 67.539,-57.22 159.129,-73.81 269.968,-31.09 l 0.11,0.03 c 153.14,23.79 198.53,253.43 142.77,398.04" /><path
         id="path326"
         style="fill:#c35363;fill-opacity:1;fill-rule:nonzero;stroke:none"
         d="m 1067.07,2451.7 c 34.52,-5.78 96.55,-63.11 150.28,-212.69 45.55,-126.78 16.79,-173.53 -0.22,-190.36 -17,-16.83 -58.54,-26.6 -99.35,-34.99 l 29.08,-75.42 -178.43,-36.71 -53.278,140.27 c 0,0 -14.117,-30.63 -65.285,-11.92 -42.238,15.43 -70.84,57.91 -55.855,92.39 14.976,34.48 63.109,45.22 94.297,16.31 0,0 23.195,6.85 29.593,57.28 0,0 53.891,10.09 98.628,65.8 62.35,77.65 53.3,162.17 50.54,190.04" /><path
         id="path328"
         style="fill:#17282f;fill-opacity:1;fill-rule:nonzero;stroke:none"
         d="m 1033.53,2219.58 c 3.29,-9.15 -1.19,-19.11 -10,-22.25 -8.81,-3.14 -18.62,1.73 -21.9,10.88 -3.29,9.14 1.18,19.1 9.99,22.23 8.82,3.15 18.62,-1.72 21.91,-10.86" /><path
         id="path330"
         style="fill:#17282f;fill-opacity:1;fill-rule:nonzero;stroke:none"
         d="m 1158.16,2316.72 -40.52,9.83 c 2.32,11.38 13.26,18.41 24.46,15.69 11.18,-2.72 18.37,-14.15 16.06,-25.52" /><path
         id="path332"
         style="fill:#17282f;fill-opacity:1;fill-rule:nonzero;stroke:none"
         d="M 996.328,2262.94 965.395,2235 c -8.102,8.31 -7.743,21.31 0.8,29.03 8.543,7.72 22.039,7.23 30.133,-1.09" /><path
         id="path334"
         style="fill:#17282f;fill-opacity:1;fill-rule:nonzero;stroke:none"
         d="m 1167.81,2273.85 c 3.29,-9.15 -1.19,-19.1 -10,-22.25 -8.81,-3.14 -18.61,1.74 -21.9,10.88 -3.29,9.14 1.19,19.1 9.99,22.24 8.81,3.14 18.63,-1.73 21.91,-10.87" /><path
         id="path336"
         style="fill:#aa3b4b;fill-opacity:1;fill-rule:nonzero;stroke:none"
         d="m 1112.35,2109.09 c 3.3,-9.14 -1.18,-19.09 -9.99,-22.24 -8.81,-3.14 -18.62,1.72 -21.9,10.87 -3.3,9.15 1.18,19.1 9.99,22.24 8.81,3.14 18.62,-1.73 21.9,-10.87" /><path
         id="path338"
         style="fill:#aa3b4b;fill-opacity:1;fill-rule:nonzero;stroke:none"
         d="m 1079.38,2257.84 29.02,-97.77 47.51,29.96 z" /><path
         id="path340"
         style="fill:#aa3b4b;fill-opacity:1;fill-rule:nonzero;stroke:none"
         d="m 1117.78,2013.66 c -42.45,-10.28 -134.796,-18.45 -160.428,9.42 0,0 12.285,-18.99 45.318,-30.71 33.05,-11.7 124.81,-3.87 124.81,-3.87 l -9.7,25.16" /><path
         id="path342"
         style="fill:#17282f;fill-opacity:1;fill-rule:nonzero;stroke:none"
         d="m 888.309,2138.58 25.488,-66.1 c 24.848,9.58 37.219,37.49 27.641,62.34 l -23.536,61.04 -29.593,-57.28" /><path
         id="path344"
         style="fill:#26b6a6;fill-opacity:1;fill-rule:nonzero;stroke:none"
         d="m 1677.7,4199.68 c -9.74,2.09 -18.18,2.48 -25.36,1.16 -7.17,-1.31 -13.34,-3.81 -18.46,-7.5 -5.15,-3.67 -9.37,-8.32 -12.66,-13.9 -3.29,-5.59 -6.08,-11.59 -8.35,-17.98 -1.38,-3.61 -2.84,-8.68 -4.39,-15.25 -1.56,-6.55 -3.08,-13.34 -4.59,-20.35 -1.51,-7.04 -2.85,-13.93 -4,-20.72 -1.17,-6.8 -2,-12.08 -2.5,-15.87 -0.85,-6.71 -0.86,-13.29 0.02,-19.78 0.85,-6.47 2.85,-12.46 6.04,-17.93 3.16,-5.46 7.82,-10.29 13.97,-14.45 6.15,-4.18 13.94,-7.27 23.39,-9.3 7.45,-1.6 14.65,-2.24 21.61,-1.93 6.96,0.3 13.26,1.79 18.94,4.47 5.66,2.68 10.57,6.72 14.74,12.11 4.15,5.41 7.14,12.4 9,21 l -36.09,7.74 c -3.16,0.69 -5.64,2.41 -7.43,5.19 -1.8,2.79 -2.35,5.75 -1.68,8.9 l 9.77,45.55 c 0.69,3.16 2.41,5.62 5.19,7.42 2.78,1.79 5.75,2.37 8.91,1.69 l 103.98,-22.31 c 3.14,-0.68 5.61,-2.42 7.41,-5.19 1.79,-2.79 2.37,-5.75 1.68,-8.9 l -11.8,-55.01 c -3.93,-18.33 -10.9,-34.06 -20.91,-47.19 -10.01,-13.12 -22.13,-23.5 -36.34,-31.08 -14.21,-7.59 -30,-12.36 -47.35,-14.33 -17.35,-1.96 -35.47,-0.92 -54.38,3.13 -20.62,4.42 -38.37,11.47 -53.22,21.09 -14.87,9.64 -26.9,20.97 -36.07,34.04 -9.19,13.05 -15.34,27.32 -18.44,42.83 -3.12,15.5 -3.42,31.22 -0.9,47.16 1.96,11.86 4.37,24.52 7.26,37.98 2.89,13.46 5.95,26.31 9.16,38.49 3.94,15.62 10.61,29.88 19.94,42.68 9.36,12.83 20.81,23.34 34.4,31.5 13.59,8.16 29.2,13.57 46.86,16.25 17.64,2.64 36.78,1.76 57.4,-2.67 20.05,-4.3 37.46,-11.12 52.25,-20.42 14.78,-9.34 26.79,-19.7 36.02,-31.12 9.23,-11.42 15.85,-23.17 19.85,-35.27 3.99,-12.08 5.23,-23.06 3.72,-32.92 -0.28,-2.64 -1.61,-4.67 -4.01,-6.11 -2.41,-1.44 -4.89,-1.87 -7.47,-1.31 l -57.15,12.25 c -4.29,0.93 -7.38,2.94 -9.26,6.04 -1.89,3.1 -3.71,6.18 -5.43,9.25 -2.91,6.03 -7.34,11.91 -13.3,17.7 -5.94,5.77 -15.94,10.16 -29.97,13.17" /><path
         id="path346"
         style="fill:#26b6a6;fill-opacity:1;fill-rule:nonzero;stroke:none"
         d="m 1892.72,4007.92 c -1.47,-11.08 0.63,-20.44 6.33,-28.11 5.69,-7.67 14.28,-12.73 25.74,-15.19 11.45,-2.47 21.34,-1.37 29.69,3.3 8.32,4.64 14.1,12.32 17.29,23.02 1.5,4.19 2.84,8.97 4,14.42 1.17,5.44 1.92,10.39 2.27,14.8 1.48,11.07 -0.63,20.42 -6.32,28.1 -5.69,7.66 -14.27,12.72 -25.72,15.19 -11.46,2.45 -21.37,1.35 -29.71,-3.29 -8.34,-4.67 -14.1,-12.34 -17.3,-23.03 -1.5,-4.17 -2.83,-8.99 -3.99,-14.43 -1.17,-5.45 -1.93,-10.37 -2.28,-14.78 z m 163.05,-2.64 c -0.66,-4.36 -1.69,-9.92 -3.13,-16.64 -1.45,-6.73 -2.78,-12.2 -3.99,-16.44 -3.52,-13.64 -9.44,-25.84 -17.75,-36.65 -8.32,-10.8 -18.45,-19.63 -30.4,-26.5 -11.97,-6.87 -25.58,-11.37 -40.88,-13.48 -15.28,-2.12 -31.66,-1.3 -49.14,2.45 -17.46,3.76 -32.73,9.72 -45.81,17.93 -13.07,8.2 -23.65,17.89 -31.74,29.07 -8.09,11.16 -13.71,23.38 -16.85,36.65 -3.14,13.25 -3.54,26.81 -1.14,40.69 0.63,4.36 1.66,9.9 3.1,16.63 1.45,6.72 2.78,12.22 3.99,16.46 3.22,13.68 9.01,25.91 17.32,36.73 8.3,10.79 18.51,19.61 30.61,26.45 12.12,6.84 25.83,11.39 41.15,13.65 15.31,2.25 31.71,1.49 49.17,-2.24 17.47,-3.76 32.74,-9.8 45.78,-18.14 13.05,-8.35 23.68,-18.13 31.9,-29.33 8.23,-11.19 13.85,-23.42 16.87,-36.64 2.99,-13.24 3.29,-26.79 0.94,-40.65" /><path
         id="path348"
         style="fill:#26b6a6;fill-opacity:1;fill-rule:nonzero;stroke:none"
         d="m 2169.6,3955.67 c -0.68,-3.15 -2.4,-5.62 -5.19,-7.42 -2.79,-1.8 -5.75,-2.37 -8.9,-1.68 l -54.13,11.61 c -3.16,0.68 -5.63,2.4 -7.43,5.2 -1.8,2.78 -2.36,5.74 -1.68,8.89 l 39.74,185.17 c 0.68,3.15 2.4,5.64 5.19,7.43 2.78,1.8 5.74,2.38 8.89,1.69 l 54.15,-11.61 c 3.14,-0.68 5.61,-2.42 7.42,-5.2 1.8,-2.78 2.36,-5.75 1.68,-8.91 z m -19.83,-92.37 c -0.68,-3.15 -2.41,-5.63 -5.19,-7.43 -2.79,-1.79 -5.75,-2.35 -8.9,-1.68 l -54.13,11.61 c -3.17,0.68 -5.63,2.41 -7.43,5.19 -1.8,2.78 -2.35,5.76 -1.68,8.9 l 9.31,43.4 c 0.68,3.15 2.41,5.62 5.19,7.42 2.78,1.81 5.74,2.36 8.9,1.69 l 54.14,-11.62 c 3.15,-0.68 5.61,-2.4 7.41,-5.18 1.82,-2.8 2.37,-5.76 1.7,-8.91 l -9.32,-43.39" /><path
         id="path350"
         style="fill:#26b6a6;fill-opacity:1;fill-rule:nonzero;stroke:none"
         d="m 1676.45,3389.1 c -9.38,-3.34 -16.78,-7.46 -22.18,-12.34 -5.43,-4.89 -9.35,-10.25 -11.78,-16.09 -2.44,-5.84 -3.58,-12 -3.44,-18.49 0.13,-6.48 0.91,-13.04 2.34,-19.68 0.73,-3.79 2.14,-8.87 4.28,-15.28 2.12,-6.38 4.39,-12.97 6.8,-19.72 2.41,-6.78 4.89,-13.35 7.48,-19.73 2.59,-6.4 4.66,-11.33 6.21,-14.82 2.82,-6.15 6.29,-11.75 10.42,-16.81 4.13,-5.06 8.98,-9.09 14.56,-12.07 5.58,-3 12.06,-4.65 19.49,-4.95 7.42,-0.33 15.69,1.15 24.79,4.39 7.18,2.55 13.64,5.79 19.4,9.71 5.76,3.91 10.35,8.51 13.76,13.76 3.41,5.25 5.47,11.27 6.17,18.06 0.69,6.77 -0.44,14.31 -3.4,22.58 l -34.76,-12.38 c -3.04,-1.07 -6.04,-0.92 -9.05,0.51 -2.98,1.42 -5.01,3.65 -6.1,6.69 l -15.63,43.88 c -1.08,3.04 -0.91,6.04 0.5,9.05 1.43,2.99 3.65,5.03 6.69,6.11 l 100.18,35.67 c 3.03,1.08 6.05,0.92 9.04,-0.51 3,-1.43 5.05,-3.65 6.13,-6.67 l 18.87,-53 c 6.29,-17.67 8.62,-34.71 7.01,-51.15 -1.62,-16.43 -6.47,-31.61 -14.57,-45.54 -8.1,-13.93 -19.01,-26.29 -32.75,-37.08 -13.73,-10.79 -29.68,-19.43 -47.91,-25.92 -19.86,-7.08 -38.65,-10.42 -56.35,-10.04 -17.7,0.37 -33.9,3.7 -48.57,9.98 -14.67,6.28 -27.42,15.19 -38.22,26.75 -10.8,11.54 -19.32,24.76 -25.54,39.64 -4.58,11.13 -9.18,23.16 -13.81,36.14 -4.61,12.96 -8.76,25.49 -12.44,37.55 -4.85,15.37 -6.68,30.98 -5.46,46.8 1.21,15.81 5.42,30.78 12.69,44.88 7.28,14.08 17.71,26.89 31.33,38.44 13.62,11.53 30.36,20.83 50.23,27.91 19.31,6.89 37.71,10.23 55.18,10.1 17.47,-0.16 33.14,-2.68 47,-7.53 13.86,-4.86 25.66,-11.39 35.42,-19.58 9.75,-8.18 16.58,-16.87 20.47,-26.05 1.17,-2.39 1.09,-4.82 -0.18,-7.3 -1.31,-2.48 -3.18,-4.17 -5.67,-5.06 l -55.05,-19.61 c -4.15,-1.46 -7.84,-1.38 -11.08,0.28 -3.23,1.64 -6.39,3.31 -9.46,5.01 -5.65,3.59 -12.51,6.28 -20.61,8.06 -8.1,1.79 -18.91,0.26 -32.43,-4.55" /><path
         id="path352"
         style="fill:#26b6a6;fill-opacity:1;fill-rule:nonzero;stroke:none"
         d="m 1960.18,3339.01 c 4.56,-10.2 11.28,-17.06 20.15,-20.58 8.88,-3.53 18.82,-3.33 29.88,0.6 11.03,3.94 18.88,10.07 23.52,18.43 4.64,8.32 5.52,17.88 2.62,28.67 -0.93,4.34 -2.32,9.12 -4.19,14.37 -1.87,5.24 -3.81,9.84 -5.85,13.77 -4.56,10.19 -11.27,17.06 -20.15,20.59 -8.87,3.53 -18.83,3.32 -29.86,-0.61 -11.05,-3.93 -18.89,-10.07 -23.54,-18.41 -4.64,-8.35 -5.52,-17.9 -2.62,-28.69 0.93,-4.34 2.33,-9.13 4.19,-14.36 1.88,-5.26 3.81,-9.84 5.85,-13.78 z m 140.06,83.46 c 1.76,-4.04 3.79,-9.31 6.1,-15.79 2.3,-6.48 4.06,-11.84 5.26,-16.08 4.16,-13.45 5.55,-26.94 4.16,-40.5 -1.4,-13.56 -5.38,-26.41 -11.94,-38.53 -6.56,-12.14 -15.78,-23.12 -27.68,-32.96 -11.88,-9.83 -26.26,-17.74 -43.08,-23.73 -16.84,-6 -32.97,-8.96 -48.41,-8.84 -15.43,0.1 -29.51,2.78 -42.28,8.02 -12.75,5.25 -23.94,12.7 -33.59,22.33 -9.65,9.62 -17.11,20.96 -22.38,34.01 -1.75,4.04 -3.78,9.3 -6.09,15.79 -2.31,6.48 -4.07,11.85 -5.26,16.09 -4.44,13.35 -5.97,26.78 -4.58,40.34 1.4,13.56 5.44,26.43 12.15,38.61 6.69,12.18 15.97,23.26 27.81,33.23 11.85,9.97 26.18,17.96 43.02,23.96 16.82,5.99 33,8.87 48.46,8.62 15.49,-0.25 29.67,-2.96 42.56,-8.16 12.89,-5.22 24.1,-12.65 33.62,-22.32 9.5,-9.67 16.88,-21.04 22.15,-34.09" /><path
         id="path354"
         style="fill:#26b6a6;fill-opacity:1;fill-rule:nonzero;stroke:none"
         d="m 2254.85,3351.12 c 1.09,-3.04 0.93,-6.05 -0.5,-9.04 -1.43,-3 -3.66,-5.03 -6.69,-6.12 l -52.16,-18.57 c -3.04,-1.08 -6.04,-0.92 -9.04,0.51 -2.99,1.42 -5.02,3.64 -6.11,6.69 l -14.89,41.81 c -1.07,3.03 -0.91,6.04 0.51,9.04 1.42,3 3.65,5.03 6.68,6.11 l 52.16,18.58 c 3.04,1.09 6.04,0.91 9.05,-0.52 2.99,-1.42 5.03,-3.64 6.1,-6.67 z m -31.69,89.01 c 1.09,-3.04 0.92,-6.06 -0.51,-9.05 -1.42,-2.99 -3.65,-5.03 -6.69,-6.12 l -52.16,-18.56 c -3.04,-1.08 -6.04,-0.92 -9.04,0.5 -2.99,1.43 -5.02,3.65 -6.11,6.69 l -63.53,178.42 c -1.08,3.04 -0.92,6.05 0.5,9.04 1.43,2.99 3.64,5.03 6.69,6.12 l 52.15,18.58 c 3.04,1.08 6.05,0.89 9.05,-0.52 2.99,-1.43 5.04,-3.65 6.11,-6.69 l 63.54,-178.41" /><path
         id="path356"
         style="fill:#26b6a6;fill-opacity:1;fill-rule:nonzero;stroke:none"
         d="m 892.43,2631.59 -53.352,136.75 42.926,123.9 v 75.85 l -131.363,-75.85 v -75.84 l 56.472,-134.25 c 0.957,-1.66 2.325,-2.74 3.84,-3.41 l -0.027,-0.05 81.504,-47.1" /><path
         id="path358"
         style="fill:#14b099;fill-opacity:1;fill-rule:nonzero;stroke:none"
         d="m 891.863,2631.92 -80.937,46.77 0.027,0.05 v 0 c -1.515,0.67 -2.883,1.75 -3.84,3.41 l -24.226,57.6 50.238,28.87 56.363,-134.05 c 0.637,-1.1 1.453,-1.99 2.375,-2.65" /><path
         id="path360"
         style="fill:#26b6a6;fill-opacity:1;fill-rule:nonzero;stroke:none"
         d="m 1142.86,3438.27 c 0,25.12 -17.63,55.65 -39.38,68.21 l -32.07,18.52 c -21.75,12.56 -57.02,12.56 -78.769,0 L 588.527,3292.59 c -21.754,-12.56 -39.39,-43.1 -39.39,-68.22 v -445.9 c 0,-25.12 17.64,-55.65 39.39,-68.21 l 32.067,-18.52 c 21.75,-12.56 57.019,-12.56 78.773,0 l 133.758,76.88 56.363,-134.05 c 3.598,-6.24 12.871,-5.36 15.231,1.45 l 59.562,208.38 139.199,79.75 c 21.75,12.55 39.38,43.09 39.38,68.21 v 445.91" /><path
         id="path362"
         style="fill:#c3c5c2;fill-opacity:1;fill-rule:nonzero;stroke:none"
         d="m 620.594,2691.74 v 0 l -32.067,18.52 c -8.668,5 -16.679,12.86 -23.183,22.09 6.504,-9.23 14.515,-17.09 23.183,-22.09 l 32.067,-18.52 v 0" /><path
         id="path364"
         style="fill:#14b099;fill-opacity:1;fill-rule:nonzero;stroke:none"
         d="m 659.73,2682.38 c -14.164,0 -28.308,3.11 -39.136,9.36 v 0 l -32.067,18.52 c -8.668,5 -16.679,12.86 -23.183,22.09 -9.821,13.94 -16.203,31.01 -16.203,46.12 v 445.9 c 0,12.56 4.406,26.48 11.535,38.81 l 0.129,-0.07 c 0,0 0,-0.01 -0.004,-0.01 l 47.82,-27.6 62.891,-36.31 c -7.125,-12.34 -11.535,-26.25 -11.535,-38.81 l 0.003,-445.9 c 0,-17.81 8.872,-28.07 21.778,-28.07 3.379,0 7.031,0.7 10.875,2.16 -9.789,-4.12 -21.352,-6.19 -32.903,-6.19" /><path
         id="path366"
         style="fill:#ffffff;fill-opacity:1;fill-rule:nonzero;stroke:none"
         d="m 898.832,3471.04 93.727,53.94 c 1.293,0.73 2.632,1.43 4.015,2.08 -1.351,-0.64 -2.664,-1.33 -3.933,-2.06 l -93.809,-53.96 m 231.088,8.4 c -5.24,8.51 -11.76,16.15 -18.99,21.92 7.24,-5.75 13.77,-13.4 18.99,-21.92" /><path
         id="path368"
         style="fill:#70cec3;fill-opacity:1;fill-rule:nonzero;stroke:none"
         d="m 671.594,3199.16 -62.973,36.34 -47.816,27.61 c 7.168,12.49 16.902,23.14 27.738,29.39 l 310.289,178.54 93.809,53.96 c 1.269,0.73 2.582,1.42 3.933,2.06 10.296,4.86 22.886,7.29 35.466,7.29 14.26,0 28.5,-3.13 39.35,-9.37 l 32.15,-18.56 c 2.53,-1.46 5,-3.15 7.39,-5.06 7.23,-5.77 13.75,-13.41 18.99,-21.92 5.75,-9.39 9.9,-19.83 11.65,-29.98 -2.99,10.9 -10.51,16.95 -20.42,16.95 -5.29,0 -11.27,-1.73 -17.61,-5.37 L 699.336,3228.56 c -10.832,-6.25 -20.758,-16.9 -27.742,-29.4" /><path
         id="path370"
         style="fill:#6ecdbc;fill-opacity:1;fill-rule:nonzero;stroke:none"
         d="m 608.621,3235.5 -47.82,27.6 c 0.004,0 0.004,0.01 0.004,0.01 l 47.816,-27.61" /><path
         id="path372"
         style="fill:#fafaf9;fill-opacity:1;fill-rule:nonzero;stroke:none"
         d="m 732.688,3034.91 c 0.042,31.37 7.707,64.21 20.238,93.15 l -0.055,0.07 0.266,0.62 c 14.652,33.56 36.015,61.73 59.687,75.32 34.551,19.91 63.934,-12.78 75.028,-58.42 1.121,-4.6 6.515,-4.86 7.304,-0.35 10.453,59.63 40.68,129.48 76.239,149.81 23.668,13.6 44.995,9.92 59.575,-6.84 l 0.26,-0.32 -0.05,-0.12 c 12.47,-14.6 20.06,-38.67 20.02,-70.05 -0.13,-97.24 -58.727,-184.55 -107.86,-276.51 l -52.961,-88.8 -50.418,29.45 c -48.953,35.63 -107.402,55.75 -107.273,152.99" /><path
         id="path374"
         style="fill:#26b6a6;fill-opacity:1;fill-rule:nonzero;stroke:none"
         d="m 964.234,3066.72 -22.617,59.37 c -1.051,3.88 -4.746,6.5 -8.785,6.53 -4.098,-0.1 -7.562,-2.98 -8.434,-6.97 l -35.039,-136.27 -27.886,76.32 c -1.297,3.54 -4.614,5.81 -8.543,5.81 h -0.117 c -3.856,-0.14 -7.157,-2.74 -8.204,-6.46 l -20.765,-73.71 -72.071,-41.61 1.684,-2.48 c 2.176,-3.18 4.691,-6.44 7.711,-9.96 l 1.5,-1.75 73.168,42.24 c 2.008,1.17 3.453,3.04 4.094,5.28 l 14.304,50.78 28.938,-79.17 c 1.379,-3.74 4.93,-5.95 8.918,-5.79 3.898,0.25 7.223,3.11 8.066,6.94 l 33.84,130.78 16.152,-35.65 c 0.727,-2.64 2.661,-4.82 5.18,-5.87 2.52,-1.04 5.442,-0.84 7.809,0.53 l 57.623,33.28 0.36,0.81 c 2.81,6.24 5.47,12.48 7.99,18.73 l 3,7.47 -67.876,-39.18" /></g></g></svg>